<?xml version="1.0" encoding="UTF-8" standalone="no"?>
<!-- Created with Inkscape (http://www.inkscape.org/) -->

<svg
   xmlns:dc="http://purl.org/dc/elements/1.1/"
   xmlns:cc="http://creativecommons.org/ns#"
   xmlns:rdf="http://www.w3.org/1999/02/22-rdf-syntax-ns#"
   xmlns:svg="http://www.w3.org/2000/svg"
   xmlns="http://www.w3.org/2000/svg"
   xmlns:sodipodi="http://sodipodi.sourceforge.net/DTD/sodipodi-0.dtd"
   xmlns:inkscape="http://www.inkscape.org/namespaces/inkscape"
   width="500"
   height="479"
   viewBox="0 0 500 479"
   id="svg3938"
   version="1.1"
   inkscape:version="0.91 r13725"
   sodipodi:docname="VfilB.svg"
   inkscape:export-filename="D:\Documents\Valentin\Progammation\CommunicationAnimale.github.io\img\vibrations\VfilB.png"
   inkscape:export-xdpi="108"
   inkscape:export-ydpi="108">
  <defs
     id="defs3940">
    <clipPath
       id="clipPath3960"
       clipPathUnits="userSpaceOnUse">
      <path
         style="clip-rule:evenodd"
         inkscape:connector-curvature="0"
         id="path3962"
         d="m 0,0.1 595.2,0 0,841.8 L 0,841.9 0,0.1 Z" />
    </clipPath>
    <clipPath
       id="clipPath4214"
       clipPathUnits="userSpaceOnUse">
      <path
         inkscape:connector-curvature="0"
         id="path4216"
         d="m -83,420 761,0 0,0.1 -761,0 0,-0.1 z" />
    </clipPath>
  </defs>
  <sodipodi:namedview
     id="base"
     pagecolor="#ffffff"
     bordercolor="#666666"
     borderopacity="1.0"
     inkscape:pageopacity="0.0"
     inkscape:pageshadow="2"
     inkscape:zoom="1.2699115"
     inkscape:cx="193.7892"
     inkscape:cy="244.50523"
     inkscape:document-units="px"
     inkscape:current-layer="layer1"
     showgrid="false"
     units="px"
     inkscape:window-width="1680"
     inkscape:window-height="1028"
     inkscape:window-x="1358"
     inkscape:window-y="-8"
     inkscape:window-maximized="1"
     inkscape:snap-page="true" />
  <metadata
     id="metadata3943">
    <rdf:RDF>
      <cc:Work
         rdf:about="">
        <dc:format>image/svg+xml</dc:format>
        <dc:type
           rdf:resource="http://purl.org/dc/dcmitype/StillImage" />
        <dc:title></dc:title>
      </cc:Work>
    </rdf:RDF>
  </metadata>
  <g
     inkscape:label="Calque 1"
     inkscape:groupmode="layer"
     id="layer1"
     transform="translate(0,-573.36216)">
    <g
       transform="matrix(2.8147916,0,0,-2.8147916,-136.04867,2797.0088)"
       inkscape:label="Vitesse onde dans filB"
       id="g3954">
      <g
         id="g3956">
        <g
           clip-path="url(#clipPath3960)"
           id="g3958" />
      </g>
      <path
         inkscape:connector-curvature="0"
         id="path3964"
         style="fill:#0066cc;fill-opacity:1;fill-rule:evenodd;stroke:none"
         d="m 49.9,788.5 0.5,-0.5 0,0 173.5,0 0,0 0.5,0.5 -174.5,0 z" />
      <path
         inkscape:connector-curvature="0"
         id="path3966"
         style="fill:#0066cc;fill-opacity:1;fill-rule:evenodd;stroke:none"
         d="m 51.8,786.6 0.6,-0.6 169.4,0 0.6,0.6 -170.6,0 z" />
      <path
         inkscape:connector-curvature="0"
         id="path3968"
         style="fill:#000000;fill-opacity:1;fill-rule:evenodd;stroke:none"
         d="m 51.7,775.6 -1.3,-0.4 1.3,-0.4 170.8,0 1.4,0.4 -1.4,0.4 -170.8,0 z" />
      <path
         inkscape:connector-curvature="0"
         id="path3970"
         style="fill:#000000;fill-opacity:1;fill-rule:evenodd;stroke:none"
         d="m 51.7,762.9 -1.3,-0.4 1.3,-0.4 170.8,0 1.4,0.4 -1.4,0.4 -170.8,0 z" />
      <path
         inkscape:connector-curvature="0"
         id="path3972"
         style="fill:#000000;fill-opacity:1;fill-rule:evenodd;stroke:none"
         d="m 51.7,750.1 -1.3,-0.4 1.3,-0.4 170.8,0 1.4,0.4 -1.4,0.4 -170.8,0 z" />
      <path
         inkscape:connector-curvature="0"
         id="path3974"
         style="fill:#000000;fill-opacity:1;fill-rule:evenodd;stroke:none"
         d="m 51.7,737.3 -1.3,-0.4 1.3,-0.4 170.8,0 1.4,0.4 -1.4,0.4 -170.8,0 z" />
      <path
         inkscape:connector-curvature="0"
         id="path3976"
         style="fill:#000000;fill-opacity:1;fill-rule:evenodd;stroke:none"
         d="m 51.7,724.5 -1.3,-0.4 1.3,-0.4 170.8,0 1.4,0.4 -1.4,0.4 -170.8,0 z" />
      <path
         inkscape:connector-curvature="0"
         id="path3978"
         style="fill:#000000;fill-opacity:1;fill-rule:evenodd;stroke:none"
         d="m 51.7,711.7 -1.3,-0.4 1.3,-0.4 170.8,0 1.4,0.4 -1.4,0.4 -170.8,0 z" />
      <path
         inkscape:connector-curvature="0"
         id="path3980"
         style="fill:#000000;fill-opacity:1;fill-rule:evenodd;stroke:none"
         d="m 51.7,698.9 -1.3,-0.4 1.3,-0.4 170.8,0 1.4,0.4 -1.4,0.4 -170.8,0 z" />
      <path
         inkscape:connector-curvature="0"
         id="path3982"
         style="fill:#000000;fill-opacity:1;fill-rule:evenodd;stroke:none"
         d="m 51.7,686.2 -1.3,-0.4 1.3,-0.4 170.8,0 1.4,0.4 -1.4,0.4 -170.8,0 z" />
      <path
         inkscape:connector-curvature="0"
         id="path3984"
         style="fill:#000000;fill-opacity:1;fill-rule:evenodd;stroke:none"
         d="m 51.7,673.4 -1.3,-0.4 1.3,-0.4 170.8,0 1.4,0.4 -1.4,0.4 -170.8,0 z" />
      <path
         inkscape:connector-curvature="0"
         id="path3986"
         style="fill:#000000;fill-opacity:1;fill-rule:evenodd;stroke:none"
         d="m 51.7,660.6 -1.3,-0.4 1.3,-0.4 170.8,0 1.4,0.4 -1.4,0.4 -170.8,0 z" />
      <path
         inkscape:connector-curvature="0"
         id="path3988"
         style="fill:#0066cc;fill-opacity:1;fill-rule:evenodd;stroke:none"
         d="m 50.9,647.9 -0.5,-0.5 0,0 173.5,0 0,0 -0.6,0.5 -172.4,0 z" />
      <path
         inkscape:connector-curvature="0"
         id="path3990"
         style="fill:#0066cc;fill-opacity:1;fill-rule:evenodd;stroke:none"
         d="m 51.8,645.9 0.6,-0.5 169.4,0 0.6,0.5 -170.6,0 z" />
      <path
         inkscape:connector-curvature="0"
         id="path3992"
         style="fill:#0066cc;fill-opacity:1;fill-rule:evenodd;stroke:none"
         d="m 50.9,635.1 -0.5,-0.5 0,0 173.5,0 0,0 -0.6,0.5 -172.4,0 z" />
      <path
         inkscape:connector-curvature="0"
         id="path3994"
         style="fill:#0066cc;fill-opacity:1;fill-rule:evenodd;stroke:none"
         d="m 51.8,633.1 0.6,-0.5 169.4,0 0.6,0.5 -170.6,0 z" />
      <path
         inkscape:connector-curvature="0"
         id="path3996"
         style="fill:#0066cc;fill-opacity:1;fill-rule:evenodd;stroke:none"
         d="m 50.9,622.3 -0.5,-0.5 0,0 173.5,0 0,0 -0.6,0.5 -172.4,0 z" />
      <path
         inkscape:connector-curvature="0"
         id="path3998"
         style="fill:#0066cc;fill-opacity:1;fill-rule:evenodd;stroke:none"
         d="m 48.9,620.4 -0.5,-0.6 177.5,0 -0.6,0.6 -176.4,0 z" />
      <path
         inkscape:connector-curvature="0"
         id="path4000"
         style="fill:#0066cc;fill-opacity:1;fill-rule:evenodd;stroke:none"
         d="m 49.9,646.9 0.5,0.5 0,0 0,140.6 0,0 -0.5,0.5 0,-141.6 z" />
      <path
         inkscape:connector-curvature="0"
         id="path4002"
         style="fill:#0066cc;fill-opacity:1;fill-rule:evenodd;stroke:none"
         d="m 51.8,648.9 0.6,0.5 0,136.6 -0.6,0.6 0,-137.7 z" />
      <path
         inkscape:connector-curvature="0"
         id="path4004"
         style="fill:#0066cc;fill-opacity:1;fill-rule:evenodd;stroke:none"
         d="m 49.9,634.1 0.5,0.5 0,0 0,12.8 0,0 -0.5,0.5 0,-13.8 z" />
      <path
         inkscape:connector-curvature="0"
         id="path4006"
         style="fill:#0066cc;fill-opacity:1;fill-rule:evenodd;stroke:none"
         d="m 51.8,636.1 0.6,0.5 0,8.8 -0.6,0.5 0,-9.8 z" />
      <path
         inkscape:connector-curvature="0"
         id="path4008"
         style="fill:#0066cc;fill-opacity:1;fill-rule:evenodd;stroke:none"
         d="m 49.9,621.3 0.5,0.5 0,0 0,12.8 0,0 -0.5,0.5 0,-13.8 z" />
      <path
         inkscape:connector-curvature="0"
         id="path4010"
         style="fill:#0066cc;fill-opacity:1;fill-rule:evenodd;stroke:none"
         d="m 51.8,623.3 0.6,0.5 0,8.8 -0.6,0.5 0,-9.8 z" />
      <path
         inkscape:connector-curvature="0"
         id="path4012"
         style="fill:#000000;fill-opacity:1;fill-rule:evenodd;stroke:none"
         d="m 153.8,648.7 0.4,-1.3 0.4,1.3 0,138 -0.4,1.3 -0.4,-1.3 0,-138 z" />
      <path
         inkscape:connector-curvature="0"
         id="path4014"
         style="fill:#000000;fill-opacity:1;fill-rule:evenodd;stroke:none"
         d="m 153.8,635.9 0.4,-1.3 0.4,1.3 0,10.2 -0.4,1.3 -0.4,-1.3 0,-10.2 z" />
      <path
         inkscape:connector-curvature="0"
         id="path4016"
         style="fill:#000000;fill-opacity:1;fill-rule:evenodd;stroke:none"
         d="m 153.8,623.1 0.4,-1.3 0.4,1.3 0,10.2 -0.4,1.3 -0.4,-1.3 0,-10.2 z" />
      <path
         inkscape:connector-curvature="0"
         id="path4018"
         style="fill:#000000;fill-opacity:1;fill-rule:evenodd;stroke:none"
         d="m 189.4,648.7 0.4,-1.3 0.4,1.3 0,138 -0.4,1.3 -0.4,-1.3 0,-138 z" />
      <path
         inkscape:connector-curvature="0"
         id="path4020"
         style="fill:#000000;fill-opacity:1;fill-rule:evenodd;stroke:none"
         d="m 189.4,635.9 0.4,-1.3 0.4,1.3 0,10.2 -0.4,1.3 -0.4,-1.3 0,-10.2 z" />
      <path
         inkscape:connector-curvature="0"
         id="path4022"
         style="fill:#000000;fill-opacity:1;fill-rule:evenodd;stroke:none"
         d="m 189.4,623.1 0.4,-1.3 0.4,1.3 0,10.2 -0.4,1.3 -0.4,-1.3 0,-10.2 z" />
      <path
         inkscape:connector-curvature="0"
         id="path4024"
         style="fill:#0066cc;fill-opacity:1;fill-rule:evenodd;stroke:none"
         d="m 223.3,647.9 0.6,-0.5 0,0 0,140.6 0,0 -0.6,-0.5 0,-139.6 z" />
      <path
         inkscape:connector-curvature="0"
         id="path4026"
         style="fill:#0066cc;fill-opacity:1;fill-rule:evenodd;stroke:none"
         d="m 225.3,645.9 0.6,-0.5 0,144.6 -0.6,-0.5 0,-143.6 z" />
      <path
         inkscape:connector-curvature="0"
         id="path4028"
         style="fill:#0066cc;fill-opacity:1;fill-rule:evenodd;stroke:none"
         d="m 223.3,635.1 0.6,-0.5 0,0 0,12.8 0,0 -0.6,-0.5 0,-11.8 z" />
      <path
         inkscape:connector-curvature="0"
         id="path4030"
         style="fill:#0066cc;fill-opacity:1;fill-rule:evenodd;stroke:none"
         d="m 225.3,633.1 0.6,-0.5 0,16.8 -0.6,-0.5 0,-15.8 z" />
      <path
         inkscape:connector-curvature="0"
         id="path4032"
         style="fill:#0066cc;fill-opacity:1;fill-rule:evenodd;stroke:none"
         d="m 223.3,622.3 0.6,-0.5 0,0 0,12.8 0,0 -0.6,-0.5 0,-11.8 z" />
      <path
         inkscape:connector-curvature="0"
         id="path4034"
         style="fill:#0066cc;fill-opacity:1;fill-rule:evenodd;stroke:none"
         d="m 225.3,620.4 0.6,-0.6 0,16.8 -0.6,-0.5 0,-15.7 z" />
      <g
         id="g4036">
        <text
           id="text4038"
           style="font-variant:normal;font-weight:normal;font-size:8px;font-family:'Source Sans Pro';-inkscape-font-specification:SourceSansPro-Regular;writing-mode:lr-tb;fill:#000000;fill-opacity:1;fill-rule:nonzero;stroke:none"
           transform="matrix(1,0,0,-1,126.4,778.4)">
          <tspan
             id="tspan4040"
             sodipodi:role="line"
             y="0"
             x="0 4.296 8.2880001 12.68 16.072001 18.063999 22.360001">Tension</tspan>
        </text>
      </g>
      <g
         id="g4042">
        <text
           id="text4044"
           style="font-variant:normal;font-weight:normal;font-size:8px;font-family:'Source Sans Pro';-inkscape-font-specification:SourceSansPro-Regular;writing-mode:lr-tb;fill:#000000;fill-opacity:1;fill-rule:nonzero;stroke:none"
           transform="matrix(1,0,0,-1,182.4,778.4)">
          <tspan
             id="tspan4046"
             sodipodi:role="line"
             y="0"
             x="0 4.3920002">A’</tspan>
        </text>
      </g>
      <g
         id="g4048">
        <text
           id="text4050"
           style="font-variant:normal;font-weight:normal;font-size:8px;font-family:'Source Sans Pro';-inkscape-font-specification:SourceSansPro-Regular;writing-mode:lr-tb;fill:#000000;fill-opacity:1;fill-rule:nonzero;stroke:none"
           transform="matrix(1,0,0,-1,216.2,778.4)">
          <tspan
             id="tspan4052"
             sodipodi:role="line"
             y="0"
             x="0 4.6960001">B’</tspan>
        </text>
      </g>
      <g
         id="g4054">
        <text
           id="text4056"
           style="font-variant:normal;font-weight:normal;font-size:8px;font-family:'Source Sans Pro';-inkscape-font-specification:SourceSansPro-Regular;writing-mode:lr-tb;fill:#000000;fill-opacity:1;fill-rule:nonzero;stroke:none"
           transform="matrix(1,0,0,-1,180.8,765.6)">
          <tspan
             id="tspan4058"
             sodipodi:role="line"
             y="0"
             x="0 3.9920001">30</tspan>
        </text>
      </g>
      <g
         id="g4060">
        <text
           id="text4062"
           style="font-variant:normal;font-weight:normal;font-size:8px;font-family:'Source Sans Pro';-inkscape-font-specification:SourceSansPro-Regular;writing-mode:lr-tb;fill:#000000;fill-opacity:1;fill-rule:nonzero;stroke:none"
           transform="matrix(1,0,0,-1,214.9,765.6)">
          <tspan
             id="tspan4064"
             sodipodi:role="line"
             y="0"
             x="0 3.9920001">28</tspan>
        </text>
      </g>
      <g
         id="g4066">
        <text
           id="text4068"
           style="font-variant:normal;font-weight:normal;font-size:8px;font-family:'Source Sans Pro';-inkscape-font-specification:SourceSansPro-Regular;writing-mode:lr-tb;fill:#000000;fill-opacity:1;fill-rule:nonzero;stroke:none"
           transform="matrix(1,0,0,-1,180.8,752.9)">
          <tspan
             id="tspan4070"
             sodipodi:role="line"
             y="0"
             x="0 3.9920001">35</tspan>
        </text>
      </g>
      <g
         id="g4072">
        <text
           id="text4074"
           style="font-variant:normal;font-weight:normal;font-size:8px;font-family:'Source Sans Pro';-inkscape-font-specification:SourceSansPro-Regular;writing-mode:lr-tb;fill:#000000;fill-opacity:1;fill-rule:nonzero;stroke:none"
           transform="matrix(1,0,0,-1,214.9,752.9)">
          <tspan
             id="tspan4076"
             sodipodi:role="line"
             y="0"
             x="0 3.9920001">31</tspan>
        </text>
      </g>
      <g
         id="g4078">
        <text
           id="text4080"
           style="font-variant:normal;font-weight:normal;font-size:8px;font-family:'Source Sans Pro';-inkscape-font-specification:SourceSansPro-Regular;writing-mode:lr-tb;fill:#000000;fill-opacity:1;fill-rule:nonzero;stroke:none"
           transform="matrix(1,0,0,-1,180.8,740.1)">
          <tspan
             id="tspan4082"
             sodipodi:role="line"
             y="0"
             x="0 3.9920001">39</tspan>
        </text>
      </g>
      <g
         id="g4084">
        <text
           id="text4086"
           style="font-variant:normal;font-weight:normal;font-size:8px;font-family:'Source Sans Pro';-inkscape-font-specification:SourceSansPro-Regular;writing-mode:lr-tb;fill:#000000;fill-opacity:1;fill-rule:nonzero;stroke:none"
           transform="matrix(1,0,0,-1,214.9,740.1)">
          <tspan
             id="tspan4088"
             sodipodi:role="line"
             y="0"
             x="0 3.9920001">35</tspan>
        </text>
      </g>
      <g
         id="g4090">
        <text
           id="text4092"
           style="font-variant:normal;font-weight:normal;font-size:8px;font-family:'Source Sans Pro';-inkscape-font-specification:SourceSansPro-Regular;writing-mode:lr-tb;fill:#000000;fill-opacity:1;fill-rule:nonzero;stroke:none"
           transform="matrix(1,0,0,-1,180.8,727.3)">
          <tspan
             id="tspan4094"
             sodipodi:role="line"
             y="0"
             x="0 3.9920001">30</tspan>
        </text>
      </g>
      <g
         id="g4096">
        <text
           id="text4098"
           style="font-variant:normal;font-weight:normal;font-size:8px;font-family:'Source Sans Pro';-inkscape-font-specification:SourceSansPro-Regular;writing-mode:lr-tb;fill:#000000;fill-opacity:1;fill-rule:nonzero;stroke:none"
           transform="matrix(1,0,0,-1,214.9,727.3)">
          <tspan
             id="tspan4100"
             sodipodi:role="line"
             y="0"
             x="0 3.9920001">23</tspan>
        </text>
      </g>
      <g
         id="g4102">
        <text
           id="text4104"
           style="font-variant:normal;font-weight:normal;font-size:8px;font-family:'Source Sans Pro';-inkscape-font-specification:SourceSansPro-Regular;writing-mode:lr-tb;fill:#000000;fill-opacity:1;fill-rule:nonzero;stroke:none"
           transform="matrix(1,0,0,-1,180.8,714.5)">
          <tspan
             id="tspan4106"
             sodipodi:role="line"
             y="0"
             x="0 3.9920001">35</tspan>
        </text>
      </g>
      <g
         id="g4108">
        <text
           id="text4110"
           style="font-variant:normal;font-weight:normal;font-size:8px;font-family:'Source Sans Pro';-inkscape-font-specification:SourceSansPro-Regular;writing-mode:lr-tb;fill:#000000;fill-opacity:1;fill-rule:nonzero;stroke:none"
           transform="matrix(1,0,0,-1,214.9,714.5)">
          <tspan
             id="tspan4112"
             sodipodi:role="line"
             y="0"
             x="0 3.9920001">17</tspan>
        </text>
      </g>
      <g
         id="g4114">
        <text
           id="text4116"
           style="font-variant:normal;font-weight:normal;font-size:8px;font-family:'Source Sans Pro';-inkscape-font-specification:SourceSansPro-Regular;writing-mode:lr-tb;fill:#000000;fill-opacity:1;fill-rule:nonzero;stroke:none"
           transform="matrix(1,0,0,-1,180.8,701.7)">
          <tspan
             id="tspan4118"
             sodipodi:role="line"
             y="0"
             x="0 3.9920001">41</tspan>
        </text>
      </g>
      <g
         id="g4120">
        <text
           id="text4122"
           style="font-variant:normal;font-weight:normal;font-size:8px;font-family:'Source Sans Pro';-inkscape-font-specification:SourceSansPro-Regular;writing-mode:lr-tb;fill:#000000;fill-opacity:1;fill-rule:nonzero;stroke:none"
           transform="matrix(1,0,0,-1,214.9,701.7)">
          <tspan
             id="tspan4124"
             sodipodi:role="line"
             y="0"
             x="0 3.9920001">35</tspan>
        </text>
      </g>
      <g
         id="g4126">
        <text
           id="text4128"
           style="font-variant:normal;font-weight:normal;font-size:8px;font-family:'Source Sans Pro';-inkscape-font-specification:SourceSansPro-Regular;writing-mode:lr-tb;fill:#000000;fill-opacity:1;fill-rule:nonzero;stroke:none"
           transform="matrix(1,0,0,-1,180.8,688.9)">
          <tspan
             id="tspan4130"
             sodipodi:role="line"
             y="0"
             x="0 3.9920001">36</tspan>
        </text>
      </g>
      <g
         id="g4132">
        <text
           id="text4134"
           style="font-variant:normal;font-weight:normal;font-size:8px;font-family:'Source Sans Pro';-inkscape-font-specification:SourceSansPro-Regular;writing-mode:lr-tb;fill:#000000;fill-opacity:1;fill-rule:nonzero;stroke:none"
           transform="matrix(1,0,0,-1,214.9,688.9)">
          <tspan
             id="tspan4136"
             sodipodi:role="line"
             y="0"
             x="0 3.9920001">27</tspan>
        </text>
      </g>
      <g
         id="g4138">
        <text
           id="text4140"
           style="font-variant:normal;font-weight:normal;font-size:8px;font-family:'Source Sans Pro';-inkscape-font-specification:SourceSansPro-Regular;writing-mode:lr-tb;fill:#000000;fill-opacity:1;fill-rule:nonzero;stroke:none"
           transform="matrix(1,0,0,-1,180.8,676.1)">
          <tspan
             id="tspan4142"
             sodipodi:role="line"
             y="0"
             x="0 3.9920001">45</tspan>
        </text>
      </g>
      <g
         id="g4144">
        <text
           id="text4146"
           style="font-variant:normal;font-weight:normal;font-size:8px;font-family:'Source Sans Pro';-inkscape-font-specification:SourceSansPro-Regular;writing-mode:lr-tb;fill:#000000;fill-opacity:1;fill-rule:nonzero;stroke:none"
           transform="matrix(1,0,0,-1,214.9,676.1)">
          <tspan
             id="tspan4148"
             sodipodi:role="line"
             y="0"
             x="0 3.9920001">33</tspan>
        </text>
      </g>
      <g
         id="g4150">
        <text
           id="text4152"
           style="font-variant:normal;font-weight:normal;font-size:8px;font-family:'Source Sans Pro';-inkscape-font-specification:SourceSansPro-Regular;writing-mode:lr-tb;fill:#000000;fill-opacity:1;fill-rule:nonzero;stroke:none"
           transform="matrix(1,0,0,-1,180.8,663.4)">
          <tspan
             id="tspan4154"
             sodipodi:role="line"
             y="0"
             x="0 3.9920001">37</tspan>
        </text>
      </g>
      <g
         id="g4156">
        <text
           id="text4158"
           style="font-variant:normal;font-weight:normal;font-size:8px;font-family:'Source Sans Pro';-inkscape-font-specification:SourceSansPro-Regular;writing-mode:lr-tb;fill:#000000;fill-opacity:1;fill-rule:nonzero;stroke:none"
           transform="matrix(1,0,0,-1,214.9,663.4)">
          <tspan
             id="tspan4160"
             sodipodi:role="line"
             y="0"
             x="0 3.9920001">37</tspan>
        </text>
      </g>
      <g
         id="g4162">
        <text
           id="text4164"
           style="font-variant:normal;font-weight:normal;font-size:8px;font-family:'Source Sans Pro';-inkscape-font-specification:SourceSansPro-Regular;writing-mode:lr-tb;fill:#000000;fill-opacity:1;fill-rule:nonzero;stroke:none"
           transform="matrix(1,0,0,-1,180.8,650.6)">
          <tspan
             id="tspan4166"
             sodipodi:role="line"
             y="0"
             x="0 3.9920001">37</tspan>
        </text>
      </g>
      <g
         id="g4168">
        <text
           id="text4170"
           style="font-variant:normal;font-weight:normal;font-size:8px;font-family:'Source Sans Pro';-inkscape-font-specification:SourceSansPro-Regular;writing-mode:lr-tb;fill:#000000;fill-opacity:1;fill-rule:nonzero;stroke:none"
           transform="matrix(1,0,0,-1,214.9,650.6)">
          <tspan
             id="tspan4172"
             sodipodi:role="line"
             y="0"
             x="0 3.9920001">37</tspan>
        </text>
      </g>
      <g
         id="g4174">
        <text
           id="text4176"
           style="font-variant:normal;font-weight:normal;font-size:8px;font-family:'Source Sans Pro';-inkscape-font-specification:SourceSansPro-Regular;writing-mode:lr-tb;fill:#000000;fill-opacity:1;fill-rule:nonzero;stroke:none"
           transform="matrix(1,0,0,-1,122.6,637.8)">
          <tspan
             id="tspan4178"
             sodipodi:role="line"
             y="0"
             x="0 5.8000002 10.096 13.792 17.784 22.176001 26.568001">Moyenne</tspan>
        </text>
      </g>
      <g
         id="g4180">
        <text
           id="text4182"
           style="font-variant:normal;font-weight:normal;font-size:8px;font-family:'Source Sans Pro';-inkscape-font-specification:SourceSansPro-Regular;writing-mode:lr-tb;fill:#000000;fill-opacity:1;fill-rule:nonzero;stroke:none"
           transform="matrix(1,0,0,-1,180.8,637.8)">
          <tspan
             id="tspan4184"
             sodipodi:role="line"
             y="0"
             x="0 3.9920001">37</tspan>
        </text>
      </g>
      <g
         id="g4186">
        <text
           id="text4188"
           style="font-variant:normal;font-weight:normal;font-size:8px;font-family:'Source Sans Pro';-inkscape-font-specification:SourceSansPro-Regular;writing-mode:lr-tb;fill:#000000;fill-opacity:1;fill-rule:nonzero;stroke:none"
           transform="matrix(1,0,0,-1,214.9,637.8)">
          <tspan
             id="tspan4190"
             sodipodi:role="line"
             y="0"
             x="0 3.9920001">30</tspan>
        </text>
      </g>
      <g
         id="g4192">
        <text
           id="text4194"
           style="font-variant:normal;font-weight:normal;font-size:8px;font-family:'Source Sans Pro';-inkscape-font-specification:SourceSansPro-Regular;writing-mode:lr-tb;fill:#000000;fill-opacity:1;fill-rule:nonzero;stroke:none"
           transform="matrix(1,0,0,-1,66.7,625)">
          <tspan
             id="tspan4196"
             sodipodi:role="line"
             y="0"
             x="0 4.0960002 6.0879998 8.7840004 12.776 16.167999 19.559999 23.552 25.152 28.848 30.448 34.848 38.84 40.439999 42.439999 44.431999 48.728001 53.119999 57.52 61.512001 63.112 65.512001 72.112 74.103996 77.496002 79.991997 83.984001">Vitesse v de l’onde (m.s-1)</tspan>
        </text>
      </g>
      <g
         id="g4198">
        <text
           id="text4200"
           style="font-variant:normal;font-weight:normal;font-size:8px;font-family:'Source Sans Pro';-inkscape-font-specification:SourceSansPro-Regular;writing-mode:lr-tb;fill:#000000;fill-opacity:1;fill-rule:nonzero;stroke:none"
           transform="matrix(1,0,0,-1,180.8,625)">
          <tspan
             id="tspan4202"
             sodipodi:role="line"
             y="0"
             x="0 3.9920001">27</tspan>
        </text>
      </g>
      <g
         id="g4204">
        <text
           id="text4206"
           style="font-variant:normal;font-weight:normal;font-size:8px;font-family:'Source Sans Pro';-inkscape-font-specification:SourceSansPro-Regular;writing-mode:lr-tb;fill:#000000;fill-opacity:1;fill-rule:nonzero;stroke:none"
           transform="matrix(1,0,0,-1,214.9,625)">
          <tspan
             id="tspan4208"
             sodipodi:role="line"
             y="0"
             x="0 3.9920001">33</tspan>
        </text>
      </g>
      <g
         id="g4210">
        <g
           id="g4212" />
        <g
           id="g4218">
          <g
             style="opacity:0.5"
             id="g4220"
             clip-path="url(#clipPath4214)">
            <g
               id="g4222" />
          </g>
        </g>
      </g>
    </g>
  </g>
</svg>
