<?xml version="1.0" encoding="UTF-8" standalone="no"?>
<!-- Created with Inkscape (http://www.inkscape.org/) -->

<svg
   xmlns:dc="http://purl.org/dc/elements/1.1/"
   xmlns:cc="http://creativecommons.org/ns#"
   xmlns:rdf="http://www.w3.org/1999/02/22-rdf-syntax-ns#"
   xmlns:svg="http://www.w3.org/2000/svg"
   xmlns="http://www.w3.org/2000/svg"
   xmlns:sodipodi="http://sodipodi.sourceforge.net/DTD/sodipodi-0.dtd"
   xmlns:inkscape="http://www.inkscape.org/namespaces/inkscape"
   width="306"
   height="212"
   viewBox="0 0 306.00001 212"
   id="svg2"
   version="1.1"
   inkscape:version="0.91 r13725"
   sodipodi:docname="VfilA.svg"
   inkscape:export-filename="D:\Documents\Valentin\Progammation\CommunicationAnimale.github.io\img\vibrations\VfilA.png"
   inkscape:export-xdpi="176.47"
   inkscape:export-ydpi="176.47">
  <defs
     id="defs4">
    <clipPath
       id="clipPath3350"
       clipPathUnits="userSpaceOnUse">
      <path
         style="clip-rule:evenodd"
         inkscape:connector-curvature="0"
         id="path3352"
         d="m 0,0.1 595.2,0 0,841.8 L 0,841.9 0,0.1 Z" />
    </clipPath>
    <clipPath
       id="clipPath3730"
       clipPathUnits="userSpaceOnUse">
      <path
         inkscape:connector-curvature="0"
         id="path3732"
         d="m -83,420 761,0 0,0.1 -761,0 0,-0.1 z" />
    </clipPath>
  </defs>
  <sodipodi:namedview
     id="base"
     pagecolor="#ffffff"
     bordercolor="#666666"
     borderopacity="1.0"
     inkscape:pageopacity="0.0"
     inkscape:pageshadow="2"
     inkscape:zoom="1.4"
     inkscape:cx="74.299521"
     inkscape:cy="53.228269"
     inkscape:document-units="px"
     inkscape:current-layer="g3344"
     showgrid="false"
     units="px"
     inkscape:window-width="1304"
     inkscape:window-height="746"
     inkscape:window-x="-8"
     inkscape:window-y="274"
     inkscape:window-maximized="1" />
  <metadata
     id="metadata7">
    <rdf:RDF>
      <cc:Work
         rdf:about="">
        <dc:format>image/svg+xml</dc:format>
        <dc:type
           rdf:resource="http://purl.org/dc/dcmitype/StillImage" />
        <dc:title></dc:title>
      </cc:Work>
    </rdf:RDF>
  </metadata>
  <g
     inkscape:label="Calque 1"
     inkscape:groupmode="layer"
     id="layer1"
     transform="translate(0,-840.36218)">
    <g
       transform="matrix(1.25,0,0,-1.25,-60.5625,1827.4872)"
       inkscape:label="Vitesse onde dans filA"
       id="g3344">
      <g
         id="g3346">
        <g
           clip-path="url(#clipPath3350)"
           id="g3348" />
      </g>
      <path
         inkscape:connector-curvature="0"
         id="path3354"
         style="fill:#0066cc;fill-opacity:1;fill-rule:evenodd;stroke:none"
         d="m 49.9,788.5 0.5,-0.5 0,0 240.9,0 0,0 0.5,0.5 -241.9,0 z" />
      <path
         inkscape:connector-curvature="0"
         id="path3356"
         style="fill:#0066cc;fill-opacity:1;fill-rule:evenodd;stroke:none"
         d="m 51.8,786.6 0.6,-0.6 236.9,0 0.5,0.6 -238,0 z" />
      <path
         inkscape:connector-curvature="0"
         id="path3358"
         style="fill:#000000;fill-opacity:1;fill-rule:evenodd;stroke:none"
         d="m 51.7,775.6 -1.3,-0.4 1.3,-0.4 238.3,0 1.3,0.4 -1.3,0.4 -238.3,0 z" />
      <path
         inkscape:connector-curvature="0"
         id="path3360"
         style="fill:#000000;fill-opacity:1;fill-rule:evenodd;stroke:none"
         d="m 51.7,762.9 -1.3,-0.4 1.3,-0.4 238.3,0 1.3,0.4 -1.3,0.4 -238.3,0 z" />
      <path
         inkscape:connector-curvature="0"
         id="path3362"
         style="fill:#000000;fill-opacity:1;fill-rule:evenodd;stroke:none"
         d="m 51.7,750.1 -1.3,-0.4 1.3,-0.4 238.3,0 1.3,0.4 -1.3,0.4 -238.3,0 z" />
      <path
         inkscape:connector-curvature="0"
         id="path3364"
         style="fill:#000000;fill-opacity:1;fill-rule:evenodd;stroke:none"
         d="m 51.7,737.3 -1.3,-0.4 1.3,-0.4 238.3,0 1.3,0.4 -1.3,0.4 -238.3,0 z" />
      <path
         inkscape:connector-curvature="0"
         id="path3366"
         style="fill:#000000;fill-opacity:1;fill-rule:evenodd;stroke:none"
         d="m 51.7,724.5 -1.3,-0.4 1.3,-0.4 238.3,0 1.3,0.4 -1.3,0.4 -238.3,0 z" />
      <path
         inkscape:connector-curvature="0"
         id="path3368"
         style="fill:#000000;fill-opacity:1;fill-rule:evenodd;stroke:none"
         d="m 51.7,711.7 -1.3,-0.4 1.3,-0.4 238.3,0 1.3,0.4 -1.3,0.4 -238.3,0 z" />
      <path
         inkscape:connector-curvature="0"
         id="path3370"
         style="fill:#000000;fill-opacity:1;fill-rule:evenodd;stroke:none"
         d="m 51.7,698.9 -1.3,-0.4 1.3,-0.4 238.3,0 1.3,0.4 -1.3,0.4 -238.3,0 z" />
      <path
         inkscape:connector-curvature="0"
         id="path3372"
         style="fill:#000000;fill-opacity:1;fill-rule:evenodd;stroke:none"
         d="m 51.7,686.2 -1.3,-0.4 1.3,-0.4 238.3,0 1.3,0.4 -1.3,0.4 -238.3,0 z" />
      <path
         inkscape:connector-curvature="0"
         id="path3374"
         style="fill:#000000;fill-opacity:1;fill-rule:evenodd;stroke:none"
         d="m 51.7,673.4 -1.3,-0.4 1.3,-0.4 238.3,0 1.3,0.4 -1.3,0.4 -238.3,0 z" />
      <path
         inkscape:connector-curvature="0"
         id="path3376"
         style="fill:#000000;fill-opacity:1;fill-rule:evenodd;stroke:none"
         d="m 51.7,660.6 -1.3,-0.4 1.3,-0.4 238.3,0 1.3,0.4 -1.3,0.4 -238.3,0 z" />
      <path
         inkscape:connector-curvature="0"
         id="path3378"
         style="fill:#0066cc;fill-opacity:1;fill-rule:evenodd;stroke:none"
         d="m 50.9,647.9 -0.5,-0.5 0,0 240.9,0 0,0 -0.5,0.5 -239.9,0 z" />
      <path
         inkscape:connector-curvature="0"
         id="path3380"
         style="fill:#0066cc;fill-opacity:1;fill-rule:evenodd;stroke:none"
         d="m 51.8,645.9 0.6,-0.5 236.9,0 0.5,0.5 -238,0 z" />
      <path
         inkscape:connector-curvature="0"
         id="path3382"
         style="fill:#0066cc;fill-opacity:1;fill-rule:evenodd;stroke:none"
         d="m 50.9,635.1 -0.5,-0.5 0,0 240.9,0 0,0 -0.5,0.5 -239.9,0 z" />
      <path
         inkscape:connector-curvature="0"
         id="path3384"
         style="fill:#0066cc;fill-opacity:1;fill-rule:evenodd;stroke:none"
         d="m 51.8,633.1 0.6,-0.5 236.9,0 0.5,0.5 -238,0 z" />
      <path
         inkscape:connector-curvature="0"
         id="path3386"
         style="fill:#0066cc;fill-opacity:1;fill-rule:evenodd;stroke:none"
         d="m 50.9,622.3 -0.5,-0.5 0,0 240.9,0 0,0 -0.5,0.5 -239.9,0 z" />
      <path
         inkscape:connector-curvature="0"
         id="path3388"
         style="fill:#0066cc;fill-opacity:1;fill-rule:evenodd;stroke:none"
         d="m 48.9,620.4 -0.5,-0.6 244.9,0 -0.5,0.6 -243.9,0 z" />
      <path
         inkscape:connector-curvature="0"
         id="path3390"
         style="fill:#0066cc;fill-opacity:1;fill-rule:evenodd;stroke:none"
         d="m 49.9,646.9 0.5,0.5 0,0 0,140.6 0,0 -0.5,0.5 0,-141.6 z" />
      <path
         inkscape:connector-curvature="0"
         id="path3392"
         style="fill:#0066cc;fill-opacity:1;fill-rule:evenodd;stroke:none"
         d="m 51.8,648.9 0.6,0.5 0,136.6 -0.6,0.6 0,-137.7 z" />
      <path
         inkscape:connector-curvature="0"
         id="path3394"
         style="fill:#0066cc;fill-opacity:1;fill-rule:evenodd;stroke:none"
         d="m 49.9,634.1 0.5,0.5 0,0 0,12.8 0,0 -0.5,0.5 0,-13.8 z" />
      <path
         inkscape:connector-curvature="0"
         id="path3396"
         style="fill:#0066cc;fill-opacity:1;fill-rule:evenodd;stroke:none"
         d="m 51.8,636.1 0.6,0.5 0,8.8 -0.6,0.5 0,-9.8 z" />
      <path
         inkscape:connector-curvature="0"
         id="path3398"
         style="fill:#0066cc;fill-opacity:1;fill-rule:evenodd;stroke:none"
         d="m 49.9,621.3 0.5,0.5 0,0 0,12.8 0,0 -0.5,0.5 0,-13.8 z" />
      <path
         inkscape:connector-curvature="0"
         id="path3400"
         style="fill:#0066cc;fill-opacity:1;fill-rule:evenodd;stroke:none"
         d="m 51.8,623.3 0.6,0.5 0,8.8 -0.6,0.5 0,-9.8 z" />
      <path
         inkscape:connector-curvature="0"
         id="path3402"
         style="fill:#000000;fill-opacity:1;fill-rule:evenodd;stroke:none"
         d="m 153.8,648.7 0.4,-1.3 0.4,1.3 0,138 -0.4,1.3 -0.4,-1.3 0,-138 z" />
      <path
         inkscape:connector-curvature="0"
         id="path3404"
         style="fill:#000000;fill-opacity:1;fill-rule:evenodd;stroke:none"
         d="m 153.8,635.9 0.4,-1.3 0.4,1.3 0,10.2 -0.4,1.3 -0.4,-1.3 0,-10.2 z" />
      <path
         inkscape:connector-curvature="0"
         id="path3406"
         style="fill:#000000;fill-opacity:1;fill-rule:evenodd;stroke:none"
         d="m 153.8,623.1 0.4,-1.3 0.4,1.3 0,10.2 -0.4,1.3 -0.4,-1.3 0,-10.2 z" />
      <path
         inkscape:connector-curvature="0"
         id="path3408"
         style="fill:#000000;fill-opacity:1;fill-rule:evenodd;stroke:none"
         d="m 189.4,648.7 0.4,-1.3 0.4,1.3 0,138 -0.4,1.3 -0.4,-1.3 0,-138 z" />
      <path
         inkscape:connector-curvature="0"
         id="path3410"
         style="fill:#000000;fill-opacity:1;fill-rule:evenodd;stroke:none"
         d="m 189.4,635.9 0.4,-1.3 0.4,1.3 0,10.2 -0.4,1.3 -0.4,-1.3 0,-10.2 z" />
      <path
         inkscape:connector-curvature="0"
         id="path3412"
         style="fill:#000000;fill-opacity:1;fill-rule:evenodd;stroke:none"
         d="m 189.4,623.1 0.4,-1.3 0.4,1.3 0,10.2 -0.4,1.3 -0.4,-1.3 0,-10.2 z" />
      <path
         inkscape:connector-curvature="0"
         id="path3414"
         style="fill:#000000;fill-opacity:1;fill-rule:evenodd;stroke:none"
         d="m 223.5,648.7 0.4,-1.3 0.3,1.3 0,138 -0.3,1.3 -0.4,-1.3 0,-138 z" />
      <path
         inkscape:connector-curvature="0"
         id="path3416"
         style="fill:#000000;fill-opacity:1;fill-rule:evenodd;stroke:none"
         d="m 223.5,635.9 0.4,-1.3 0.3,1.3 0,10.2 -0.3,1.3 -0.4,-1.3 0,-10.2 z" />
      <path
         inkscape:connector-curvature="0"
         id="path3418"
         style="fill:#000000;fill-opacity:1;fill-rule:evenodd;stroke:none"
         d="m 223.5,623.1 0.4,-1.3 0.3,1.3 0,10.2 -0.3,1.3 -0.4,-1.3 0,-10.2 z" />
      <path
         inkscape:connector-curvature="0"
         id="path3420"
         style="fill:#000000;fill-opacity:1;fill-rule:evenodd;stroke:none"
         d="m 257.5,648.7 0.4,-1.3 0.4,1.3 0,138 -0.4,1.3 -0.4,-1.3 0,-138 z" />
      <path
         inkscape:connector-curvature="0"
         id="path3422"
         style="fill:#000000;fill-opacity:1;fill-rule:evenodd;stroke:none"
         d="m 257.5,635.9 0.4,-1.3 0.4,1.3 0,10.2 -0.4,1.3 -0.4,-1.3 0,-10.2 z" />
      <path
         inkscape:connector-curvature="0"
         id="path3424"
         style="fill:#000000;fill-opacity:1;fill-rule:evenodd;stroke:none"
         d="m 257.5,623.1 0.4,-1.3 0.4,1.3 0,10.2 -0.4,1.3 -0.4,-1.3 0,-10.2 z" />
      <path
         inkscape:connector-curvature="0"
         id="path3426"
         style="fill:#0066cc;fill-opacity:1;fill-rule:evenodd;stroke:none"
         d="m 290.8,647.9 0.5,-0.5 0,0 0,140.6 0,0 -0.5,-0.5 0,-139.6 z" />
      <path
         inkscape:connector-curvature="0"
         id="path3428"
         style="fill:#0066cc;fill-opacity:1;fill-rule:evenodd;stroke:none"
         d="m 292.8,645.9 0.5,-0.5 0,144.6 -0.5,-0.5 0,-143.6 z" />
      <path
         inkscape:connector-curvature="0"
         id="path3430"
         style="fill:#0066cc;fill-opacity:1;fill-rule:evenodd;stroke:none"
         d="m 290.8,635.1 0.5,-0.5 0,0 0,12.8 0,0 -0.5,-0.5 0,-11.8 z" />
      <path
         inkscape:connector-curvature="0"
         id="path3432"
         style="fill:#0066cc;fill-opacity:1;fill-rule:evenodd;stroke:none"
         d="m 292.8,633.1 0.5,-0.5 0,16.8 -0.5,-0.5 0,-15.8 z" />
      <path
         inkscape:connector-curvature="0"
         id="path3434"
         style="fill:#0066cc;fill-opacity:1;fill-rule:evenodd;stroke:none"
         d="m 290.8,622.3 0.5,-0.5 0,0 0,12.8 0,0 -0.5,-0.5 0,-11.8 z" />
      <path
         inkscape:connector-curvature="0"
         id="path3436"
         style="fill:#0066cc;fill-opacity:1;fill-rule:evenodd;stroke:none"
         d="m 292.8,620.4 0.5,-0.6 0,16.8 -0.5,-0.5 0,-15.7 z" />
      <g
         id="g3438">
        <text
           id="text3440"
           style="font-variant:normal;font-weight:normal;font-size:8px;font-family:'Source Sans Pro';-inkscape-font-specification:SourceSansPro-Regular;writing-mode:lr-tb;fill:#000000;fill-opacity:1;fill-rule:nonzero;stroke:none"
           transform="matrix(1,0,0,-1,126.4,778.4)">
          <tspan
             id="tspan3442"
             sodipodi:role="line"
             y="0"
             x="0 4.296 8.2880001 12.68 16.072001 18.063999 22.360001">Tension</tspan>
        </text>
      </g>
      <g
         id="g3444">
        <text
           id="text3446"
           style="font-variant:normal;font-weight:normal;font-size:8px;font-family:'Source Sans Pro';-inkscape-font-specification:SourceSansPro-Regular;writing-mode:lr-tb;fill:#000000;fill-opacity:1;fill-rule:nonzero;stroke:none"
           transform="matrix(1,0,0,-1,184.4,778.4)">
          <tspan
             id="tspan3448"
             y="0"
             x="0">A</tspan>
        </text>
      </g>
      <g
         id="g3450">
        <text
           id="text3452"
           style="font-variant:normal;font-weight:normal;font-size:8px;font-family:'Source Sans Pro';-inkscape-font-specification:SourceSansPro-Regular;writing-mode:lr-tb;fill:#000000;fill-opacity:1;fill-rule:nonzero;stroke:none"
           transform="matrix(1,0,0,-1,218.2,778.4)">
          <tspan
             id="tspan3454"
             y="0"
             x="0">B</tspan>
        </text>
      </g>
      <g
         id="g3456">
        <text
           id="text3458"
           style="font-variant:normal;font-weight:normal;font-size:8px;font-family:'Source Sans Pro';-inkscape-font-specification:SourceSansPro-Regular;writing-mode:lr-tb;fill:#000000;fill-opacity:1;fill-rule:nonzero;stroke:none"
           transform="matrix(1,0,0,-1,252.3,778.4)">
          <tspan
             id="tspan3460"
             y="0"
             x="0">C</tspan>
        </text>
      </g>
      <g
         id="g3462">
        <text
           id="text3464"
           style="font-variant:normal;font-weight:normal;font-size:8px;font-family:'Source Sans Pro';-inkscape-font-specification:SourceSansPro-Regular;writing-mode:lr-tb;fill:#000000;fill-opacity:1;fill-rule:nonzero;stroke:none"
           transform="matrix(1,0,0,-1,285.4,778.4)">
          <tspan
             id="tspan3466"
             y="0"
             x="0">D</tspan>
        </text>
      </g>
      <g
         id="g3468">
        <text
           id="text3470"
           style="font-variant:normal;font-weight:normal;font-size:8px;font-family:'Source Sans Pro';-inkscape-font-specification:SourceSansPro-Regular;writing-mode:lr-tb;fill:#000000;fill-opacity:1;fill-rule:nonzero;stroke:none"
           transform="matrix(1,0,0,-1,180.8,765.6)">
          <tspan
             id="tspan3472"
             sodipodi:role="line"
             y="0"
             x="0 3.9920001">24</tspan>
        </text>
      </g>
      <g
         id="g3474">
        <text
           id="text3476"
           style="font-variant:normal;font-weight:normal;font-size:8px;font-family:'Source Sans Pro';-inkscape-font-specification:SourceSansPro-Regular;writing-mode:lr-tb;fill:#000000;fill-opacity:1;fill-rule:nonzero;stroke:none"
           transform="matrix(1,0,0,-1,214.9,765.6)">
          <tspan
             id="tspan3478"
             sodipodi:role="line"
             y="0"
             x="0 3.9920001">19</tspan>
        </text>
      </g>
      <g
         id="g3480">
        <text
           id="text3482"
           style="font-variant:normal;font-weight:normal;font-size:8px;font-family:'Source Sans Pro';-inkscape-font-specification:SourceSansPro-Regular;writing-mode:lr-tb;fill:#000000;fill-opacity:1;fill-rule:nonzero;stroke:none"
           transform="matrix(1,0,0,-1,248.9,765.6)">
          <tspan
             id="tspan3484"
             sodipodi:role="line"
             y="0"
             x="0 3.9920001">10</tspan>
        </text>
      </g>
      <g
         id="g3486">
        <text
           id="text3488"
           style="font-variant:normal;font-weight:normal;font-size:8px;font-family:'Source Sans Pro';-inkscape-font-specification:SourceSansPro-Regular;writing-mode:lr-tb;fill:#000000;fill-opacity:1;fill-rule:nonzero;stroke:none"
           transform="matrix(1,0,0,-1,286.3,765.6)">
          <tspan
             id="tspan3490"
             y="0"
             x="0">5</tspan>
        </text>
      </g>
      <g
         id="g3492">
        <text
           id="text3494"
           style="font-variant:normal;font-weight:normal;font-size:8px;font-family:'Source Sans Pro';-inkscape-font-specification:SourceSansPro-Regular;writing-mode:lr-tb;fill:#000000;fill-opacity:1;fill-rule:nonzero;stroke:none"
           transform="matrix(1,0,0,-1,180.8,752.9)">
          <tspan
             id="tspan3496"
             sodipodi:role="line"
             y="0"
             x="0 3.9920001">22</tspan>
        </text>
      </g>
      <g
         id="g3498">
        <text
           id="text3500"
           style="font-variant:normal;font-weight:normal;font-size:8px;font-family:'Source Sans Pro';-inkscape-font-specification:SourceSansPro-Regular;writing-mode:lr-tb;fill:#000000;fill-opacity:1;fill-rule:nonzero;stroke:none"
           transform="matrix(1,0,0,-1,214.9,752.9)">
          <tspan
             id="tspan3502"
             sodipodi:role="line"
             y="0"
             x="0 3.9920001">18</tspan>
        </text>
      </g>
      <g
         id="g3504">
        <text
           id="text3506"
           style="font-variant:normal;font-weight:normal;font-size:8px;font-family:'Source Sans Pro';-inkscape-font-specification:SourceSansPro-Regular;writing-mode:lr-tb;fill:#000000;fill-opacity:1;fill-rule:nonzero;stroke:none"
           transform="matrix(1,0,0,-1,248.9,752.9)">
          <tspan
             id="tspan3508"
             sodipodi:role="line"
             y="0"
             x="0 3.9920001">13</tspan>
        </text>
      </g>
      <g
         id="g3510">
        <text
           id="text3512"
           style="font-variant:normal;font-weight:normal;font-size:8px;font-family:'Source Sans Pro';-inkscape-font-specification:SourceSansPro-Regular;writing-mode:lr-tb;fill:#000000;fill-opacity:1;fill-rule:nonzero;stroke:none"
           transform="matrix(1,0,0,-1,286.3,752.9)">
          <tspan
             id="tspan3514"
             y="0"
             x="0">4</tspan>
        </text>
      </g>
      <g
         id="g3516">
        <text
           id="text3518"
           style="font-variant:normal;font-weight:normal;font-size:8px;font-family:'Source Sans Pro';-inkscape-font-specification:SourceSansPro-Regular;writing-mode:lr-tb;fill:#000000;fill-opacity:1;fill-rule:nonzero;stroke:none"
           transform="matrix(1,0,0,-1,180.8,740.1)">
          <tspan
             id="tspan3520"
             sodipodi:role="line"
             y="0"
             x="0 3.9920001">26</tspan>
        </text>
      </g>
      <g
         id="g3522">
        <text
           id="text3524"
           style="font-variant:normal;font-weight:normal;font-size:8px;font-family:'Source Sans Pro';-inkscape-font-specification:SourceSansPro-Regular;writing-mode:lr-tb;fill:#000000;fill-opacity:1;fill-rule:nonzero;stroke:none"
           transform="matrix(1,0,0,-1,214.9,740.1)">
          <tspan
             id="tspan3526"
             sodipodi:role="line"
             y="0"
             x="0 3.9920001">15</tspan>
        </text>
      </g>
      <g
         id="g3528">
        <text
           id="text3530"
           style="font-variant:normal;font-weight:normal;font-size:8px;font-family:'Source Sans Pro';-inkscape-font-specification:SourceSansPro-Regular;writing-mode:lr-tb;fill:#000000;fill-opacity:1;fill-rule:nonzero;stroke:none"
           transform="matrix(1,0,0,-1,252.9,740.1)">
          <tspan
             id="tspan3532"
             y="0"
             x="0">6</tspan>
        </text>
      </g>
      <g
         id="g3534">
        <text
           id="text3536"
           style="font-variant:normal;font-weight:normal;font-size:8px;font-family:'Source Sans Pro';-inkscape-font-specification:SourceSansPro-Regular;writing-mode:lr-tb;fill:#000000;fill-opacity:1;fill-rule:nonzero;stroke:none"
           transform="matrix(1,0,0,-1,286.3,740.1)">
          <tspan
             id="tspan3538"
             y="0"
             x="0">7</tspan>
        </text>
      </g>
      <g
         id="g3540">
        <text
           id="text3542"
           style="font-variant:normal;font-weight:normal;font-size:8px;font-family:'Source Sans Pro';-inkscape-font-specification:SourceSansPro-Regular;writing-mode:lr-tb;fill:#000000;fill-opacity:1;fill-rule:nonzero;stroke:none"
           transform="matrix(1,0,0,-1,180.8,727.3)">
          <tspan
             id="tspan3544"
             sodipodi:role="line"
             y="0"
             x="0 3.9920001">26</tspan>
        </text>
      </g>
      <g
         id="g3546">
        <text
           id="text3548"
           style="font-variant:normal;font-weight:normal;font-size:8px;font-family:'Source Sans Pro';-inkscape-font-specification:SourceSansPro-Regular;writing-mode:lr-tb;fill:#000000;fill-opacity:1;fill-rule:nonzero;stroke:none"
           transform="matrix(1,0,0,-1,214.9,727.3)">
          <tspan
             id="tspan3550"
             sodipodi:role="line"
             y="0"
             x="0 3.9920001">15</tspan>
        </text>
      </g>
      <g
         id="g3552">
        <text
           id="text3554"
           style="font-variant:normal;font-weight:normal;font-size:8px;font-family:'Source Sans Pro';-inkscape-font-specification:SourceSansPro-Regular;writing-mode:lr-tb;fill:#000000;fill-opacity:1;fill-rule:nonzero;stroke:none"
           transform="matrix(1,0,0,-1,252.9,727.3)">
          <tspan
             id="tspan3556"
             y="0"
             x="0">9</tspan>
        </text>
      </g>
      <g
         id="g3558">
        <text
           id="text3560"
           style="font-variant:normal;font-weight:normal;font-size:8px;font-family:'Source Sans Pro';-inkscape-font-specification:SourceSansPro-Regular;writing-mode:lr-tb;fill:#000000;fill-opacity:1;fill-rule:nonzero;stroke:none"
           transform="matrix(1,0,0,-1,286.3,727.3)">
          <tspan
             id="tspan3562"
             y="0"
             x="0">4</tspan>
        </text>
      </g>
      <g
         id="g3564">
        <text
           id="text3566"
           style="font-variant:normal;font-weight:normal;font-size:8px;font-family:'Source Sans Pro';-inkscape-font-specification:SourceSansPro-Regular;writing-mode:lr-tb;fill:#000000;fill-opacity:1;fill-rule:nonzero;stroke:none"
           transform="matrix(1,0,0,-1,180.8,714.5)">
          <tspan
             id="tspan3568"
             sodipodi:role="line"
             y="0"
             x="0 3.9920001">20</tspan>
        </text>
      </g>
      <g
         id="g3570">
        <text
           id="text3572"
           style="font-variant:normal;font-weight:normal;font-size:8px;font-family:'Source Sans Pro';-inkscape-font-specification:SourceSansPro-Regular;writing-mode:lr-tb;fill:#000000;fill-opacity:1;fill-rule:nonzero;stroke:none"
           transform="matrix(1,0,0,-1,214.9,714.5)">
          <tspan
             id="tspan3574"
             sodipodi:role="line"
             y="0"
             x="0 3.9920001">15</tspan>
        </text>
      </g>
      <g
         id="g3576">
        <text
           id="text3578"
           style="font-variant:normal;font-weight:normal;font-size:8px;font-family:'Source Sans Pro';-inkscape-font-specification:SourceSansPro-Regular;writing-mode:lr-tb;fill:#000000;fill-opacity:1;fill-rule:nonzero;stroke:none"
           transform="matrix(1,0,0,-1,248.9,714.5)">
          <tspan
             id="tspan3580"
             sodipodi:role="line"
             y="0"
             x="0 3.9920001">11</tspan>
        </text>
      </g>
      <g
         id="g3582">
        <text
           id="text3584"
           style="font-variant:normal;font-weight:normal;font-size:8px;font-family:'Source Sans Pro';-inkscape-font-specification:SourceSansPro-Regular;writing-mode:lr-tb;fill:#000000;fill-opacity:1;fill-rule:nonzero;stroke:none"
           transform="matrix(1,0,0,-1,286.3,714.5)">
          <tspan
             id="tspan3586"
             y="0"
             x="0">9</tspan>
        </text>
      </g>
      <g
         id="g3588">
        <text
           id="text3590"
           style="font-variant:normal;font-weight:normal;font-size:8px;font-family:'Source Sans Pro';-inkscape-font-specification:SourceSansPro-Regular;writing-mode:lr-tb;fill:#000000;fill-opacity:1;fill-rule:nonzero;stroke:none"
           transform="matrix(1,0,0,-1,180.8,701.7)">
          <tspan
             id="tspan3592"
             sodipodi:role="line"
             y="0"
             x="0 3.9920001">28</tspan>
        </text>
      </g>
      <g
         id="g3594">
        <text
           id="text3596"
           style="font-variant:normal;font-weight:normal;font-size:8px;font-family:'Source Sans Pro';-inkscape-font-specification:SourceSansPro-Regular;writing-mode:lr-tb;fill:#000000;fill-opacity:1;fill-rule:nonzero;stroke:none"
           transform="matrix(1,0,0,-1,214.9,701.7)">
          <tspan
             id="tspan3598"
             sodipodi:role="line"
             y="0"
             x="0 3.9920001">22</tspan>
        </text>
      </g>
      <g
         id="g3600">
        <text
           id="text3602"
           style="font-variant:normal;font-weight:normal;font-size:8px;font-family:'Source Sans Pro';-inkscape-font-specification:SourceSansPro-Regular;writing-mode:lr-tb;fill:#000000;fill-opacity:1;fill-rule:nonzero;stroke:none"
           transform="matrix(1,0,0,-1,252.9,701.7)">
          <tspan
             id="tspan3604"
             y="0"
             x="0">7</tspan>
        </text>
      </g>
      <g
         id="g3606">
        <text
           id="text3608"
           style="font-variant:normal;font-weight:normal;font-size:8px;font-family:'Source Sans Pro';-inkscape-font-specification:SourceSansPro-Regular;writing-mode:lr-tb;fill:#000000;fill-opacity:1;fill-rule:nonzero;stroke:none"
           transform="matrix(1,0,0,-1,286.3,701.7)">
          <tspan
             id="tspan3610"
             y="0"
             x="0">6</tspan>
        </text>
      </g>
      <g
         id="g3612">
        <text
           id="text3614"
           style="font-variant:normal;font-weight:normal;font-size:8px;font-family:'Source Sans Pro';-inkscape-font-specification:SourceSansPro-Regular;writing-mode:lr-tb;fill:#000000;fill-opacity:1;fill-rule:nonzero;stroke:none"
           transform="matrix(1,0,0,-1,180.8,688.9)">
          <tspan
             id="tspan3616"
             sodipodi:role="line"
             y="0"
             x="0 3.9920001">23</tspan>
        </text>
      </g>
      <g
         id="g3618">
        <text
           id="text3620"
           style="font-variant:normal;font-weight:normal;font-size:8px;font-family:'Source Sans Pro';-inkscape-font-specification:SourceSansPro-Regular;writing-mode:lr-tb;fill:#000000;fill-opacity:1;fill-rule:nonzero;stroke:none"
           transform="matrix(1,0,0,-1,214.9,688.9)">
          <tspan
             id="tspan3622"
             sodipodi:role="line"
             y="0"
             x="0 3.9920001">15</tspan>
        </text>
      </g>
      <g
         id="g3624">
        <text
           id="text3626"
           style="font-variant:normal;font-weight:normal;font-size:8px;font-family:'Source Sans Pro';-inkscape-font-specification:SourceSansPro-Regular;writing-mode:lr-tb;fill:#000000;fill-opacity:1;fill-rule:nonzero;stroke:none"
           transform="matrix(1,0,0,-1,252.9,688.9)">
          <tspan
             id="tspan3628"
             y="0"
             x="0">9</tspan>
        </text>
      </g>
      <g
         id="g3630">
        <text
           id="text3632"
           style="font-variant:normal;font-weight:normal;font-size:8px;font-family:'Source Sans Pro';-inkscape-font-specification:SourceSansPro-Regular;writing-mode:lr-tb;fill:#000000;fill-opacity:1;fill-rule:nonzero;stroke:none"
           transform="matrix(1,0,0,-1,286.3,688.9)">
          <tspan
             id="tspan3634"
             y="0"
             x="0">6</tspan>
        </text>
      </g>
      <g
         id="g3636">
        <text
           id="text3638"
           style="font-variant:normal;font-weight:normal;font-size:8px;font-family:'Source Sans Pro';-inkscape-font-specification:SourceSansPro-Regular;writing-mode:lr-tb;fill:#000000;fill-opacity:1;fill-rule:nonzero;stroke:none"
           transform="matrix(1,0,0,-1,180.8,676.1)">
          <tspan
             id="tspan3640"
             sodipodi:role="line"
             y="0"
             x="0 3.9920001">17</tspan>
        </text>
      </g>
      <g
         id="g3642">
        <text
           id="text3644"
           style="font-variant:normal;font-weight:normal;font-size:8px;font-family:'Source Sans Pro';-inkscape-font-specification:SourceSansPro-Regular;writing-mode:lr-tb;fill:#000000;fill-opacity:1;fill-rule:nonzero;stroke:none"
           transform="matrix(1,0,0,-1,214.9,676.1)">
          <tspan
             id="tspan3646"
             sodipodi:role="line"
             y="0"
             x="0 3.9920001">14</tspan>
        </text>
      </g>
      <g
         id="g3648">
        <text
           id="text3650"
           style="font-variant:normal;font-weight:normal;font-size:8px;font-family:'Source Sans Pro';-inkscape-font-specification:SourceSansPro-Regular;writing-mode:lr-tb;fill:#000000;fill-opacity:1;fill-rule:nonzero;stroke:none"
           transform="matrix(1,0,0,-1,248.9,676.1)">
          <tspan
             id="tspan3652"
             sodipodi:role="line"
             y="0"
             x="0 3.9920001">10</tspan>
        </text>
      </g>
      <g
         id="g3654">
        <text
           id="text3656"
           style="font-variant:normal;font-weight:normal;font-size:8px;font-family:'Source Sans Pro';-inkscape-font-specification:SourceSansPro-Regular;writing-mode:lr-tb;fill:#000000;fill-opacity:1;fill-rule:nonzero;stroke:none"
           transform="matrix(1,0,0,-1,184.8,663.4)">
          <tspan
             id="tspan3658"
             y="0"
             x="0">8</tspan>
        </text>
      </g>
      <g
         id="g3660">
        <text
           id="text3662"
           style="font-variant:normal;font-weight:normal;font-size:8px;font-family:'Source Sans Pro';-inkscape-font-specification:SourceSansPro-Regular;writing-mode:lr-tb;fill:#000000;fill-opacity:1;fill-rule:nonzero;stroke:none"
           transform="matrix(1,0,0,-1,184.8,650.6)">
          <tspan
             id="tspan3664"
             y="0"
             x="0">5</tspan>
        </text>
      </g>
      <g
         id="g3666">
        <text
           id="text3668"
           style="font-variant:normal;font-weight:normal;font-size:8px;font-family:'Source Sans Pro';-inkscape-font-specification:SourceSansPro-Regular;writing-mode:lr-tb;fill:#000000;fill-opacity:1;fill-rule:nonzero;stroke:none"
           transform="matrix(1,0,0,-1,122.6,637.8)">
          <tspan
             id="tspan3670"
             sodipodi:role="line"
             y="0"
             x="0 5.8000002 10.096 13.792 17.784 22.176001 26.568001">Moyenne</tspan>
        </text>
      </g>
      <g
         id="g3672">
        <text
           id="text3674"
           style="font-variant:normal;font-weight:normal;font-size:8px;font-family:'Source Sans Pro';-inkscape-font-specification:SourceSansPro-Regular;writing-mode:lr-tb;fill:#000000;fill-opacity:1;fill-rule:nonzero;stroke:none"
           transform="matrix(1,0,0,-1,180.8,637.8)">
          <tspan
             id="tspan3676"
             sodipodi:role="line"
             y="0"
             x="0 3.9920001">24</tspan>
        </text>
      </g>
      <g
         id="g3678">
        <text
           id="text3680"
           style="font-variant:normal;font-weight:normal;font-size:8px;font-family:'Source Sans Pro';-inkscape-font-specification:SourceSansPro-Regular;writing-mode:lr-tb;fill:#000000;fill-opacity:1;fill-rule:nonzero;stroke:none"
           transform="matrix(1,0,0,-1,214.9,637.8)">
          <tspan
             id="tspan3682"
             sodipodi:role="line"
             y="0"
             x="0 3.9920001">17</tspan>
        </text>
      </g>
      <g
         id="g3684">
        <text
           id="text3686"
           style="font-variant:normal;font-weight:normal;font-size:8px;font-family:'Source Sans Pro';-inkscape-font-specification:SourceSansPro-Regular;writing-mode:lr-tb;fill:#000000;fill-opacity:1;fill-rule:nonzero;stroke:none"
           transform="matrix(1,0,0,-1,246.9,637.8)">
          <tspan
             id="tspan3688"
             sodipodi:role="line"
             y="0"
             x="0 3.9920001 5.9840002">9.2</tspan>
        </text>
      </g>
      <g
         id="g3690">
        <text
           id="text3692"
           style="font-variant:normal;font-weight:normal;font-size:8px;font-family:'Source Sans Pro';-inkscape-font-specification:SourceSansPro-Regular;writing-mode:lr-tb;fill:#000000;fill-opacity:1;fill-rule:nonzero;stroke:none"
           transform="matrix(1,0,0,-1,286.3,637.8)">
          <tspan
             id="tspan3694"
             y="0"
             x="0">6</tspan>
        </text>
      </g>
      <g
         id="g3696">
        <text
           id="text3698"
           style="font-variant:normal;font-weight:normal;font-size:8px;font-family:'Source Sans Pro';-inkscape-font-specification:SourceSansPro-Regular;writing-mode:lr-tb;fill:#000000;fill-opacity:1;fill-rule:nonzero;stroke:none"
           transform="matrix(1,0,0,-1,66.7,625)">
          <tspan
             id="tspan3700"
             sodipodi:role="line"
             y="0"
             x="0 4.0960002 6.0879998 8.7840004 12.776 16.167999 19.559999 23.552 25.152 28.848 30.448 34.848 38.84 40.439999 42.439999 44.431999 48.728001 53.119999 57.52 61.512001 63.112 65.512001 72.112 74.103996 77.496002 79.991997 83.984001">Vitesse v de l’onde (m.s-1)</tspan>
        </text>
      </g>
      <g
         id="g3702">
        <text
           id="text3704"
           style="font-variant:normal;font-weight:normal;font-size:8px;font-family:'Source Sans Pro';-inkscape-font-specification:SourceSansPro-Regular;writing-mode:lr-tb;fill:#000000;fill-opacity:1;fill-rule:nonzero;stroke:none"
           transform="matrix(1,0,0,-1,180.8,625)">
          <tspan
             id="tspan3706"
             sodipodi:role="line"
             y="0"
             x="0 3.9920001">41</tspan>
        </text>
      </g>
      <g
         id="g3708">
        <text
           id="text3710"
           style="font-variant:normal;font-weight:normal;font-size:8px;font-family:'Source Sans Pro';-inkscape-font-specification:SourceSansPro-Regular;writing-mode:lr-tb;fill:#000000;fill-opacity:1;fill-rule:nonzero;stroke:none"
           transform="matrix(1,0,0,-1,214.9,625)">
          <tspan
             id="tspan3712"
             sodipodi:role="line"
             y="0"
             x="0 3.9920001">59</tspan>
        </text>
      </g>
      <g
         id="g3714">
        <text
           id="text3716"
           style="font-variant:normal;font-weight:normal;font-size:8px;font-family:'Source Sans Pro';-inkscape-font-specification:SourceSansPro-Regular;writing-mode:lr-tb;fill:#000000;fill-opacity:1;fill-rule:nonzero;stroke:none"
           transform="matrix(1,0,0,-1,244.9,625)">
          <tspan
             id="tspan3718"
             sodipodi:role="line"
             y="0"
             x="0 3.9920001 7.9840002">110</tspan>
        </text>
      </g>
      <g
         id="g3720">
        <text
           id="text3722"
           style="font-variant:normal;font-weight:normal;font-size:8px;font-family:'Source Sans Pro';-inkscape-font-specification:SourceSansPro-Regular;writing-mode:lr-tb;fill:#000000;fill-opacity:1;fill-rule:nonzero;stroke:none"
           transform="matrix(1,0,0,-1,278.3,625)">
          <tspan
             id="tspan3724"
             sodipodi:role="line"
             y="0"
             x="0 3.9920001 7.9840002">160</tspan>
        </text>
      </g>
      <g
         id="g3726">
        <g
           id="g3728" />
        <g
           id="g3734">
          <g
             style="opacity:0.5"
             id="g3736"
             clip-path="url(#clipPath3730)">
            <g
               id="g3738" />
          </g>
        </g>
      </g>
    </g>
  </g>
</svg>
