<?xml version="1.0" encoding="UTF-8" standalone="no"?>
<!-- Created with Inkscape (http://www.inkscape.org/) -->

<svg
   xmlns:dc="http://purl.org/dc/elements/1.1/"
   xmlns:cc="http://creativecommons.org/ns#"
   xmlns:rdf="http://www.w3.org/1999/02/22-rdf-syntax-ns#"
   xmlns:svg="http://www.w3.org/2000/svg"
   xmlns="http://www.w3.org/2000/svg"
   xmlns:sodipodi="http://sodipodi.sourceforge.net/DTD/sodipodi-0.dtd"
   xmlns:inkscape="http://www.inkscape.org/namespaces/inkscape"
   width="660"
   height="340"
   viewBox="0 0 660.00001 340.00001"
   id="svg3409"
   version="1.1"
   inkscape:version="0.91 r13725"
   sodipodi:docname="schemaVOnde.svg"
   inkscape:export-filename="C:\Users\Philippe\Documents\Valentin\Prog\CommunicationAnimale.github.io\img\schemaVOnde.png"
   inkscape:export-xdpi="90"
   inkscape:export-ydpi="90">
  <defs
     id="defs3411" />
  <sodipodi:namedview
     id="base"
     pagecolor="#ffffff"
     bordercolor="#666666"
     borderopacity="1.0"
     inkscape:pageopacity="0.0"
     inkscape:pageshadow="2"
     inkscape:zoom="1.7"
     inkscape:cx="390.60936"
     inkscape:cy="170"
     inkscape:document-units="px"
     inkscape:current-layer="text3520"
     showgrid="false"
     units="px"
     inkscape:window-width="1304"
     inkscape:window-height="745"
     inkscape:window-x="-8"
     inkscape:window-y="-8"
     inkscape:window-maximized="1" />
  <metadata
     id="metadata3414">
    <rdf:RDF>
      <cc:Work
         rdf:about="">
        <dc:format>image/svg+xml</dc:format>
        <dc:type
           rdf:resource="http://purl.org/dc/dcmitype/StillImage" />
        <dc:title />
      </cc:Work>
    </rdf:RDF>
  </metadata>
  <g
     inkscape:label="Layer 1"
     inkscape:groupmode="layer"
     id="layer1"
     transform="translate(0,-712.36216)">
    <path
       style="fill:none;fill-rule:evenodd;stroke:#784421;stroke-width:4.39130259;stroke-linecap:butt;stroke-linejoin:miter;stroke-opacity:1"
       d="m 88.134869,812.36216 453.730261,0"
       id="path3428"
       inkscape:connector-curvature="0" />
    <rect
       y="790.8916"
       x="154.70587"
       height="42.941177"
       width="20.588236"
       id="rect3424"
       style="fill:#808080;fill-opacity:1;stroke:#333333;stroke-width:3;stroke-miterlimit:4;stroke-dasharray:none;stroke-dashoffset:0;stroke-opacity:1" />
    <path
       style="fill:none;fill-rule:evenodd;stroke:#000000;stroke-width:3;stroke-linecap:butt;stroke-linejoin:miter;stroke-opacity:1"
       d="m 543.36513,995.60093 0,-224.70592"
       id="path3474"
       inkscape:connector-curvature="0" />
    <path
       style="fill:none;fill-rule:evenodd;stroke:#000000;stroke-width:3;stroke-linecap:butt;stroke-linejoin:miter;stroke-opacity:1"
       d="m 510.71807,994.10093 65.29412,0"
       id="path3419-0"
       inkscape:connector-curvature="0" />
    <path
       style="fill:none;fill-rule:evenodd;stroke:#000000;stroke-width:3;stroke-linecap:butt;stroke-linejoin:miter;stroke-opacity:1"
       d="m 86.634869,995.60093 0,-224.70592"
       id="path3474-4"
       inkscape:connector-curvature="0" />
    <path
       style="fill:none;fill-rule:evenodd;stroke:#000000;stroke-width:3;stroke-linecap:butt;stroke-linejoin:miter;stroke-opacity:1"
       d="m 53.987809,994.10093 65.294121,0"
       id="path3419-0-2"
       inkscape:connector-curvature="0" />
    <rect
       style="fill:#808080;fill-opacity:1;stroke:#333333;stroke-width:3;stroke-miterlimit:4;stroke-dasharray:none;stroke-dashoffset:0;stroke-opacity:1"
       id="rect3506"
       width="20.588236"
       height="42.941177"
       x="454.70587"
       y="790.8916" />
    <path
       inkscape:connector-curvature="0"
       id="path3363"
       style="fill:none;fill-rule:evenodd;stroke:#000000;stroke-width:4;stroke-linecap:butt;stroke-linejoin:miter;stroke-opacity:1"
       d="m 165.85443,859.98404 296.86764,0 m -18.88229,20.7765 20.77646,-20.77654 -20.77646,-20.77645 M 184.73673,880.76054 163.96026,859.984 184.73672,839.20758"
       sodipodi:nodetypes="cccccccc" />
    <g
       transform="translate(-114.10554,-87.607372)"
       style="font-style:normal;font-variant:normal;font-weight:normal;font-stretch:normal;font-size:35.06375885px;line-height:125%;font-family:'Open Sans';-inkscape-font-specification:'Open Sans';text-align:center;letter-spacing:0px;word-spacing:0px;text-anchor:middle;fill:#000000;fill-opacity:1;stroke:none;stroke-width:1px;stroke-linecap:butt;stroke-linejoin:miter;stroke-opacity:1"
       id="text3402-6">
      <path
         inkscape:connector-curvature="0"
         d="m 414.10634,979.84857 -2.7736,0 0,-17.84006 q 0,-2.22572 0.13697,-4.21176 -0.35954,0.35955 -0.80469,0.75333 -0.44515,0.39378 -4.07479,3.33859 l -1.50665,-1.95179 6.62582,-5.11918 2.39694,0 0,25.03087 z"
         id="path3402" />
      <path
         inkscape:connector-curvature="0"
         d="m 448.86192,979.84857 0,-12.20725 q 0,-2.24285 -0.95878,-3.35572 -0.95877,-1.12998 -2.97905,-1.12998 -2.65375,0 -3.9207,1.52377 -1.26695,1.52376 -1.26695,4.69114 l 0,10.47804 -2.84208,0 0,-12.20725 q 0,-2.24285 -0.95878,-3.35572 -0.95877,-1.12998 -2.99617,-1.12998 -2.67087,0 -3.9207,1.60937 -1.23271,1.59225 -1.23271,5.23902 l 0,9.84456 -2.84209,0 0,-18.76459 2.31134,0 0.46226,2.56815 0.13697,0 q 0.80469,-1.36968 2.25997,-2.14012 1.4724,-0.77045 3.28723,-0.77045 4.40009,0 5.75264,3.1845 l 0.13697,0 q 0.83893,-1.4724 2.43118,-2.32845 1.59225,-0.85605 3.62965,-0.85605 3.1845,0 4.75963,1.64362 1.59225,1.62649 1.59225,5.22189 l 0,12.2415 -2.84208,0 z"
         id="path3404" />
    </g>
    <g
       style="font-style:normal;font-weight:normal;font-size:30px;line-height:125%;font-family:sans-serif;letter-spacing:0px;word-spacing:0px;fill:#000000;fill-opacity:1;stroke:none;stroke-width:1px;stroke-linecap:butt;stroke-linejoin:miter;stroke-opacity:1"
       id="text3520">
      <path
         d="m 224.2749,727.6311 0,3.12012 q -1.49414,-1.3916 -3.19336,-2.08008 -1.68457,-0.68847 -3.58886,-0.68847 -3.75,0 -5.74219,2.2998 -1.99219,2.28516 -1.99219,6.62109 0,4.32129 1.99219,6.6211 1.99219,2.28515 5.74219,2.28515 1.90429,0 3.58886,-0.68847 1.69922,-0.68848 3.19336,-2.08008 l 0,3.09082 q -1.55273,1.05469 -3.2959,1.58203 -1.72851,0.52735 -3.66211,0.52735 -4.96582,0 -7.82226,-3.03223 -2.85645,-3.04688 -2.85645,-8.30567 0,-5.27343 2.85645,-8.30566 2.85644,-3.04687 7.82226,-3.04687 1.9629,0 3.69141,0.52734 1.74316,0.51269 3.2666,1.55273 z"
         style="text-align:center;text-anchor:middle"
         id="path3377" />
      <path
         d="m 236.21338,739.56958 q -3.2666,0 -4.52637,0.74707 -1.25976,0.74707 -1.25976,2.54883 0,1.43555 0.9375,2.28515 0.95214,0.83497 2.57812,0.83497 2.24121,0 3.58887,-1.58204 1.3623,-1.59668 1.3623,-4.23339 l 0,-0.60059 -2.68066,0 z m 5.37598,-1.11328 0,9.36035 -2.69532,0 0,-2.49023 q -0.92285,1.49414 -2.2998,2.21191 -1.37695,0.70313 -3.36914,0.70313 -2.51953,0 -4.01367,-1.40625 -1.4795,-1.4209 -1.4795,-3.79395 0,-2.76855 1.84571,-4.1748 1.86035,-1.40625 5.53711,-1.40625 l 3.77929,0 0,-0.26368 q 0,-1.86035 -1.23047,-2.87109 -1.21582,-1.02539 -3.42773,-1.02539 -1.40625,0 -2.73926,0.33691 -1.33301,0.33692 -2.56347,1.01075 l 0,-2.49024 q 1.47949,-0.57129 2.87109,-0.84961 1.3916,-0.29297 2.70996,-0.29297 3.55957,0 5.31738,1.84571 1.75782,1.8457 1.75782,5.5957 z"
         style="text-align:center;text-anchor:middle"
         id="path3379" />
      <path
         d="m 249.76318,745.35571 0,8.70117 -2.70996,0 0,-22.64648 2.70996,0 0,2.49023 q 0.84961,-1.46484 2.13868,-2.16796 1.30371,-0.71778 3.10546,-0.71778 2.98829,0 4.84864,2.37305 1.875,2.37305 1.875,6.24023 0,3.86719 -1.875,6.24024 -1.86035,2.37305 -4.84864,2.37305 -1.80175,0 -3.10546,-0.70313 -1.28907,-0.71777 -2.13868,-2.18262 z m 9.16993,-5.72754 q 0,-2.97363 -1.23047,-4.6582 -1.21582,-1.69922 -3.3545,-1.69922 -2.13867,0 -3.36914,1.69922 -1.21582,1.68457 -1.21582,4.6582 0,2.97364 1.21582,4.67286 1.23047,1.68457 3.36914,1.68457 2.13868,0 3.3545,-1.68457 1.23047,-1.69922 1.23047,-4.67286 z"
         style="text-align:center;text-anchor:middle"
         id="path3381" />
      <path
         d="m 268.86475,726.7522 0,4.6582 5.55175,0 0,2.09473 -5.55175,0 0,8.90625 q 0,2.00683 0.54199,2.57812 0.55664,0.57129 2.24121,0.57129 l 2.76855,0 0,2.25586 -2.76855,0 q -3.12012,0 -4.30664,-1.15723 -1.18652,-1.17187 -1.18652,-4.24804 l 0,-8.90625 -1.97754,0 0,-2.09473 1.97754,0 0,-4.6582 2.70996,0 z"
         style="text-align:center;text-anchor:middle"
         id="path3383" />
      <path
         d="m 292.00928,738.9397 0,1.31836 -12.39258,0 q 0.17578,2.7832 1.66992,4.24804 1.50879,1.4502 4.18945,1.4502 1.55274,0 3.00293,-0.38086 1.46485,-0.38086 2.90039,-1.14258 l 0,2.54883 q -1.45019,0.61523 -2.97363,0.9375 -1.52344,0.32227 -3.09082,0.32227 -3.92578,0 -6.22558,-2.28516 -2.28516,-2.28516 -2.28516,-6.18164 0,-4.02832 2.16797,-6.38672 2.18262,-2.37305 5.87402,-2.37305 3.31055,0 5.22949,2.13867 1.9336,2.12403 1.9336,5.78614 z m -2.69532,-0.79102 q -0.0293,-2.21191 -1.24511,-3.53027 -1.20117,-1.31836 -3.19336,-1.31836 -2.25586,0 -3.61817,1.27441 -1.34765,1.27442 -1.55273,3.58887 l 9.60937,-0.0146 z"
         style="text-align:center;text-anchor:middle"
         id="path3385" />
      <path
         d="m 296.15479,741.34204 0,-9.93164 2.69531,0 0,9.8291 q 0,2.3291 0.9082,3.50098 0.9082,1.15723 2.72461,1.15723 2.18262,0 3.44238,-1.39161 1.27442,-1.3916 1.27442,-3.79394 l 0,-9.30176 2.69531,0 0,16.40625 -2.69531,0 0,-2.51953 q -0.98145,1.49414 -2.28516,2.22656 -1.28906,0.71778 -3.00293,0.71778 -2.82715,0 -4.29199,-1.75782 -1.46484,-1.75781 -1.46484,-5.1416 z m 6.78222,-10.32715 0,0 z"
         style="text-align:center;text-anchor:middle"
         id="path3387" />
      <path
         d="m 324.98291,733.92993 q -0.4541,-0.26367 -0.99609,-0.38086 -0.52735,-0.13183 -1.17188,-0.13183 -2.28515,0 -3.51562,1.49414 -1.21582,1.47949 -1.21582,4.26269 l 0,8.64258 -2.70996,0 0,-16.40625 2.70996,0 0,2.54883 q 0.84961,-1.49414 2.21191,-2.21192 1.3623,-0.73242 3.31055,-0.73242 0.27832,0 0.61523,0.0439 0.33692,0.0293 0.74707,0.10254 l 0.0147,2.76855 z"
         style="text-align:center;text-anchor:middle"
         id="path3389" />
      <path
         d="m 338.29834,731.8938 0,2.54883 q -1.14258,-0.58594 -2.37305,-0.87891 -1.23047,-0.29297 -2.54883,-0.29297 -2.00683,0 -3.01757,0.61524 -0.9961,0.61523 -0.9961,1.8457 0,0.9375 0.71778,1.47949 0.71777,0.52735 2.88574,1.01074 l 0.92285,0.20508 q 2.87109,0.61524 4.07227,1.74317 1.21582,1.11328 1.21582,3.12011 0,2.28516 -1.81641,3.61817 -1.80176,1.33301 -4.96582,1.33301 -1.31836,0 -2.75391,-0.26368 -1.4209,-0.24902 -3.00293,-0.76172 l 0,-2.7832 q 1.49414,0.77637 2.94434,1.17188 1.45019,0.38086 2.87109,0.38086 1.9043,0 2.92969,-0.64454 1.02539,-0.65918 1.02539,-1.8457 0,-1.09863 -0.74707,-1.68457 -0.73242,-0.58594 -3.2373,-1.12793 l -0.9375,-0.21973 q -2.50489,-0.52734 -3.61817,-1.61132 -1.11328,-1.09864 -1.11328,-3.00293 0,-2.31446 1.64063,-3.57422 1.64062,-1.25977 4.6582,-1.25977 1.49414,0 2.8125,0.21973 1.31836,0.21973 2.43164,0.65918 z"
         style="text-align:center;text-anchor:middle"
         id="path3391" />
      <path
         d="m 353.03467,725.02368 2.69531,0 0,22.79297 -2.69531,0 0,-22.79297 z"
         style="text-align:center;text-anchor:middle"
         id="path3393" />
      <path
         d="m 368.81104,739.56958 q -3.26661,0 -4.52637,0.74707 -1.25977,0.74707 -1.25977,2.54883 0,1.43555 0.9375,2.28515 0.95215,0.83497 2.57813,0.83497 2.24121,0 3.58886,-1.58204 1.36231,-1.59668 1.36231,-4.23339 l 0,-0.60059 -2.68066,0 z m 5.37597,-1.11328 0,9.36035 -2.69531,0 0,-2.49023 q -0.92285,1.49414 -2.29981,2.21191 -1.37695,0.70313 -3.36914,0.70313 -2.51953,0 -4.01367,-1.40625 -1.47949,-1.4209 -1.47949,-3.79395 0,-2.76855 1.8457,-4.1748 1.86035,-1.40625 5.53711,-1.40625 l 3.7793,0 0,-0.26368 q 0,-1.86035 -1.23047,-2.87109 -1.21582,-1.02539 -3.42773,-1.02539 -1.40625,0 -2.73926,0.33691 -1.33301,0.33692 -2.56348,1.01075 l 0,-2.49024 q 1.47949,-0.57129 2.8711,-0.84961 1.3916,-0.29297 2.70996,-0.29297 3.55957,0 5.31738,1.84571 1.75781,1.8457 1.75781,5.5957 z"
         style="text-align:center;text-anchor:middle"
         id="path3395" />
      <path
         d="m 390.2124,731.8938 0,2.54883 q -1.14258,-0.58594 -2.37304,-0.87891 -1.23047,-0.29297 -2.54883,-0.29297 -2.00684,0 -3.01758,0.61524 -0.99609,0.61523 -0.99609,1.8457 0,0.9375 0.71777,1.47949 0.71777,0.52735 2.88574,1.01074 l 0.92285,0.20508 q 2.8711,0.61524 4.07227,1.74317 1.21582,1.11328 1.21582,3.12011 0,2.28516 -1.81641,3.61817 -1.80176,1.33301 -4.96582,1.33301 -1.31836,0 -2.7539,-0.26368 -1.4209,-0.24902 -3.00293,-0.76172 l 0,-2.7832 q 1.49414,0.77637 2.94433,1.17188 1.4502,0.38086 2.8711,0.38086 1.90429,0 2.92968,-0.64454 1.02539,-0.65918 1.02539,-1.8457 0,-1.09863 -0.74707,-1.68457 -0.73242,-0.58594 -3.2373,-1.12793 l -0.9375,-0.21973 q -2.50488,-0.52734 -3.61817,-1.61132 -1.11328,-1.09864 -1.11328,-3.00293 0,-2.31446 1.64063,-3.57422 1.64062,-1.25977 4.6582,-1.25977 1.49414,0 2.8125,0.21973 1.31836,0.21973 2.43164,0.65918 z"
         style="text-align:center;text-anchor:middle"
         id="path3397" />
      <path
         d="m 409.43115,738.9397 0,1.31836 -12.39258,0 q 0.17579,2.7832 1.66993,4.24804 1.50879,1.4502 4.18945,1.4502 1.55273,0 3.00293,-0.38086 1.46484,-0.38086 2.90039,-1.14258 l 0,2.54883 q -1.4502,0.61523 -2.97363,0.9375 -1.52344,0.32227 -3.09082,0.32227 -3.92578,0 -6.22559,-2.28516 -2.28516,-2.28516 -2.28516,-6.18164 0,-4.02832 2.16797,-6.38672 2.18262,-2.37305 5.87403,-2.37305 3.31054,0 5.22949,2.13867 1.93359,2.12403 1.93359,5.78614 z m -2.69531,-0.79102 q -0.0293,-2.21191 -1.24512,-3.53027 -1.20117,-1.31836 -3.19336,-1.31836 -2.25586,0 -3.61816,1.27441 -1.34766,1.27442 -1.55274,3.58887 l 9.60938,-0.0146 z"
         style="text-align:center;text-anchor:middle"
         id="path3399" />
      <path
         d="m 423.36182,733.92993 q -0.45411,-0.26367 -0.9961,-0.38086 -0.52734,-0.13183 -1.17187,-0.13183 -2.28516,0 -3.51563,1.49414 -1.21582,1.47949 -1.21582,4.26269 l 0,8.64258 -2.70996,0 0,-16.40625 2.70996,0 0,2.54883 q 0.84961,-1.49414 2.21192,-2.21192 1.3623,-0.73242 3.31054,-0.73242 0.27832,0 0.61524,0.0439 0.33691,0.0293 0.74707,0.10254 l 0.0147,2.76855 z"
         style="text-align:center;text-anchor:middle"
         id="path3401" />
    </g>
    <path
       style="fill:none;fill-rule:evenodd;stroke:#000000;stroke-width:2;stroke-linecap:butt;stroke-linejoin:miter;stroke-opacity:1"
       d="m 167.1286,802.04065 147.81597,-43.82483 149.30155,46.05321"
       id="path3535"
       inkscape:connector-curvature="0"
       sodipodi:nodetypes="ccc" />
    <text
       xml:space="preserve"
       style="font-style:normal;font-weight:normal;font-size:50px;line-height:125%;font-family:sans-serif;letter-spacing:0px;word-spacing:0px;fill:#000000;fill-opacity:1;stroke:none;stroke-width:1px;stroke-linecap:butt;stroke-linejoin:miter;stroke-opacity:1"
       x="563.03772"
       y="749.30231"
       id="text3537"
       sodipodi:linespacing="125%"><tspan
         sodipodi:role="line"
         id="tspan3539"
         x="563.03772"
         y="749.30231" /></text>
    <g
       style="font-style:normal;font-weight:normal;font-size:30px;line-height:92.00000167%;font-family:sans-serif;letter-spacing:0px;word-spacing:0px;fill:#000000;fill-opacity:1;stroke:none;stroke-width:1px;stroke-linecap:butt;stroke-linejoin:miter;stroke-opacity:1"
       id="text3541">
      <path
         d="m 581.20673,788.61072 0,3.12011 q -1.49414,-1.3916 -3.19336,-2.08007 -1.68457,-0.68848 -3.58887,-0.68848 -3.75,0 -5.74219,2.2998 -1.99219,2.28516 -1.99219,6.6211 0,4.32129 1.99219,6.62109 1.99219,2.28516 5.74219,2.28516 1.9043,0 3.58887,-0.68848 1.69922,-0.68847 3.19336,-2.08008 l 0,3.09082 q -1.55274,1.05469 -3.2959,1.58204 -1.72852,0.52734 -3.66211,0.52734 -4.96582,0 -7.82227,-3.03223 -2.85644,-3.04687 -2.85644,-8.30566 0,-5.27344 2.85644,-8.30567 2.85645,-3.04687 7.82227,-3.04687 1.96289,0 3.6914,0.52734 1.74317,0.5127 3.26661,1.55274 z"
         style="line-height:92.00000167%;text-align:center;text-anchor:middle"
         id="path3354" />
      <path
         d="m 592.04657,794.27966 q -2.16797,0 -3.42773,1.69922 -1.25977,1.68457 -1.25977,4.62891 0,2.94433 1.24512,4.64355 1.25976,1.68457 3.44238,1.68457 2.15332,0 3.41309,-1.69922 1.25976,-1.69921 1.25976,-4.6289 0,-2.91504 -1.25976,-4.61426 -1.25977,-1.71387 -3.41309,-1.71387 z m 0,-2.28515 q 3.51562,0 5.52246,2.28515 2.00684,2.28516 2.00684,6.32813 0,4.02832 -2.00684,6.32812 -2.00684,2.28516 -5.52246,2.28516 -3.53027,0 -5.53711,-2.28516 -1.99219,-2.2998 -1.99219,-6.32812 0,-4.04297 1.99219,-6.32813 2.00684,-2.28515 5.53711,-2.28515 z"
         style="line-height:92.00000167%;text-align:center;text-anchor:middle"
         id="path3356" />
      <path
         d="m 613.53583,794.90955 q -0.4541,-0.26368 -0.9961,-0.38086 -0.52734,-0.13184 -1.17187,-0.13184 -2.28516,0 -3.51563,1.49414 -1.21582,1.47949 -1.21582,4.2627 l 0,8.64257 -2.70996,0 0,-16.40625 2.70996,0 0,2.54883 q 0.84961,-1.49414 2.21192,-2.21191 1.3623,-0.73242 3.31054,-0.73242 0.27832,0 0.61524,0.0439 0.33691,0.0293 0.74707,0.10254 l 0.0147,2.76856 z"
         style="line-height:92.00000167%;text-align:center;text-anchor:middle"
         id="path3358" />
      <path
         d="m 626.66083,794.88025 0,-8.87695 2.69531,0 0,22.79296 -2.69531,0 0,-2.46093 q -0.84961,1.46484 -2.15332,2.18261 -1.28907,0.70313 -3.10547,0.70313 -2.97363,0 -4.84863,-2.37305 -1.86036,-2.37304 -1.86036,-6.24023 0,-3.86719 1.86036,-6.24024 1.875,-2.37304 4.84863,-2.37304 1.8164,0 3.10547,0.71777 1.30371,0.70313 2.15332,2.16797 z m -9.18457,5.72754 q 0,2.97363 1.21582,4.67285 1.23047,1.68457 3.36914,1.68457 2.13867,0 3.36914,-1.68457 1.23047,-1.69922 1.23047,-4.67285 0,-2.97363 -1.23047,-4.65821 -1.23047,-1.69921 -3.36914,-1.69921 -2.13867,0 -3.36914,1.69921 -1.21582,1.68458 -1.21582,4.65821 z"
         style="line-height:92.00000167%;text-align:center;text-anchor:middle"
         id="path3360" />
      <path
         d="m 648.9411,799.91931 0,1.31836 -12.39258,0 q 0.17578,2.7832 1.66992,4.24805 1.50879,1.45019 4.18946,1.45019 1.55273,0 3.00293,-0.38086 1.46484,-0.38086 2.90039,-1.14257 l 0,2.54882 q -1.4502,0.61524 -2.97363,0.9375 -1.52344,0.32227 -3.09082,0.32227 -3.92579,0 -6.22559,-2.28516 -2.28516,-2.28515 -2.28516,-6.18164 0,-4.02832 2.16797,-6.38672 2.18262,-2.37304 5.87403,-2.37304 3.31054,0 5.22949,2.13867 1.93359,2.12402 1.93359,5.78613 z m -2.69531,-0.79101 q -0.0293,-2.21192 -1.24512,-3.53028 -1.20117,-1.31836 -3.19336,-1.31836 -2.25586,0 -3.61816,1.27442 -1.34766,1.27441 -1.55274,3.58886 l 9.60938,-0.0146 z"
         style="line-height:92.00000167%;text-align:center;text-anchor:middle"
         id="path3362" />
      <path
         d="m 558.79462,815.33181 0,4.65821 5.55175,0 0,2.09472 -5.55175,0 0,8.90625 q 0,2.00684 0.54199,2.57813 0.55664,0.57129 2.24121,0.57129 l 2.76855,0 0,2.25586 -2.76855,0 q -3.12012,0 -4.30664,-1.15723 -1.18652,-1.17188 -1.18652,-4.24805 l 0,-8.90625 -1.97754,0 0,-2.09472 1.97754,0 0,-4.65821 2.70996,0 z"
         style="line-height:92.00000167%;text-align:center;text-anchor:middle"
         id="path3364" />
      <path
         d="m 581.93915,827.51931 0,1.31836 -12.39258,0 q 0.17578,2.7832 1.66992,4.24805 1.50879,1.45019 4.18945,1.45019 1.55274,0 3.00293,-0.38086 1.46485,-0.38086 2.9004,-1.14257 l 0,2.54882 q -1.4502,0.61524 -2.97364,0.9375 -1.52344,0.32227 -3.09082,0.32227 -3.92578,0 -6.22558,-2.28516 -2.28516,-2.28515 -2.28516,-6.18164 0,-4.02832 2.16797,-6.38672 2.18262,-2.37304 5.87402,-2.37304 3.31055,0 5.22949,2.13867 1.9336,2.12402 1.9336,5.78613 z m -2.69531,-0.79101 q -0.0293,-2.21192 -1.24512,-3.53028 -1.20117,-1.31836 -3.19336,-1.31836 -2.25586,0 -3.61817,1.27442 -1.34765,1.27441 -1.55273,3.58886 l 9.60938,-0.0146 z"
         style="line-height:92.00000167%;text-align:center;text-anchor:middle"
         id="path3366" />
      <path
         d="m 600.00067,826.49392 0,9.90235 -2.69531,0 0,-9.81446 q 0,-2.3291 -0.9082,-3.48633 -0.90821,-1.15722 -2.72461,-1.15722 -2.18262,0 -3.44239,1.3916 -1.25976,1.3916 -1.25976,3.79394 l 0,9.27247 -2.70996,0 0,-16.40625 2.70996,0 0,2.54882 q 0.96679,-1.47949 2.27051,-2.21191 1.31836,-0.73242 3.03222,-0.73242 2.82715,0 4.27735,1.75781 1.45019,1.74316 1.45019,5.1416 z"
         style="line-height:92.00000167%;text-align:center;text-anchor:middle"
         id="path3368" />
      <path
         d="m 616.20184,822.48025 0,-8.87695 2.69532,0 0,22.79297 -2.69532,0 0,-2.46094 q -0.84961,1.46484 -2.15332,2.18261 -1.28906,0.70313 -3.10547,0.70313 -2.97363,0 -4.84863,-2.37305 -1.86035,-2.37304 -1.86035,-6.24023 0,-3.86719 1.86035,-6.24024 1.875,-2.37304 4.84863,-2.37304 1.81641,0 3.10547,0.71777 1.30371,0.70313 2.15332,2.16797 z m -9.18457,5.72754 q 0,2.97363 1.21582,4.67285 1.23047,1.68457 3.36914,1.68457 2.13868,0 3.36914,-1.68457 1.23047,-1.69922 1.23047,-4.67285 0,-2.97363 -1.23047,-4.6582 -1.23046,-1.69922 -3.36914,-1.69922 -2.13867,0 -3.36914,1.69922 -1.21582,1.68457 -1.21582,4.6582 z"
         style="line-height:92.00000167%;text-align:center;text-anchor:middle"
         id="path3370" />
      <path
         d="m 624.17059,829.92166 0,-9.93164 2.69532,0 0,9.8291 q 0,2.3291 0.9082,3.50097 0.9082,1.15723 2.72461,1.15723 2.18262,0 3.44238,-1.3916 1.27442,-1.3916 1.27442,-3.79395 l 0,-9.30175 2.69531,0 0,16.40625 -2.69531,0 0,-2.51954 q -0.98145,1.49414 -2.28516,2.22657 -1.28906,0.71777 -3.00293,0.71777 -2.82715,0 -4.29199,-1.75781 -1.46485,-1.75782 -1.46485,-5.1416 z m 6.78223,-10.32715 0,0 z"
         style="line-height:92.00000167%;text-align:center;text-anchor:middle"
         id="path3372" />
      <path
         d="m 657.52509,827.51931 0,1.31836 -12.39258,0 q 0.17578,2.7832 1.66992,4.24805 1.50879,1.45019 4.18945,1.45019 1.55274,0 3.00293,-0.38086 1.46485,-0.38086 2.90039,-1.14257 l 0,2.54882 q -1.45019,0.61524 -2.97363,0.9375 -1.52344,0.32227 -3.09082,0.32227 -3.92578,0 -6.22559,-2.28516 -2.28515,-2.28515 -2.28515,-6.18164 0,-4.02832 2.16797,-6.38672 2.18261,-2.37304 5.87402,-2.37304 3.31055,0 5.22949,2.13867 1.9336,2.12402 1.9336,5.78613 z m -2.69532,-0.79101 q -0.0293,-2.21192 -1.24511,-3.53028 -1.20118,-1.31836 -3.19336,-1.31836 -2.25586,0 -3.61817,1.27442 -1.34765,1.27441 -1.55273,3.58886 l 9.60937,-0.0146 z"
         style="line-height:92.00000167%;text-align:center;text-anchor:middle"
         id="path3374" />
    </g>
    <path
       style="fill:none;fill-rule:evenodd;stroke:#000000;stroke-width:2;stroke-linecap:butt;stroke-linejoin:miter;stroke-opacity:1"
       d="m 507.38359,812.36216 69.07983,0"
       id="path3549"
       inkscape:connector-curvature="0"
       sodipodi:nodetypes="cc" />
  </g>
</svg>
