<?xml version="1.0" encoding="UTF-8" standalone="no"?><svg xmlns:dc="http://purl.org/dc/elements/1.1/" xmlns:cc="http://creativecommons.org/ns#" xmlns:rdf="http://www.w3.org/1999/02/22-rdf-syntax-ns#" xmlns:svg="http://www.w3.org/2000/svg" xmlns="http://www.w3.org/2000/svg" xmlns:sodipodi="http://sodipodi.sourceforge.net/DTD/sodipodi-0.dtd" xmlns:inkscape="http://www.inkscape.org/namespaces/inkscape" width="675" height="337.5" viewBox="0 0 675 337.5" id="svg2" version="1.1" inkscape:version="0.91 r13725" sodipodi:docname="schemaDiffraction.svg" inkscape:export-filename="C:\Users\Philippe\Documents\Valentin\Prog\CommunicationAnimale.github.io\img\schemaDiffraction.png" inkscape:export-xdpi="90" inkscape:export-ydpi="90"><defs id="defs4"/><sodipodi:namedview id="base" pagecolor="#ffffff" bordercolor="#666666" borderopacity="1.0" inkscape:pageopacity="0.0" inkscape:pageshadow="2" inkscape:zoom="0.89043076" inkscape:cx="393.76495" inkscape:cy="41.894611" inkscape:document-units="px" inkscape:current-layer="layer1" showgrid="false" units="px" inkscape:snap-page="true" inkscape:window-width="1304" inkscape:window-height="745" inkscape:window-x="-8" inkscape:window-y="-8" inkscape:window-maximized="1" showguides="false"/><g inkscape:label="Calque 1" inkscape:groupmode="layer" id="layer1" transform="translate(0,-714.86216)"><path style="display:inline;opacity:1;fill:none;fill-opacity:1;stroke:#000000;stroke-width:5.61034441;stroke-miterlimit:4;stroke-dasharray:none" d="m 270.53291,859.26753 53.23891,15.67135 c 11.7529,3.45958 22.11463,9.86313 22.11463,22.11463 l 0,29.48619 c 0,12.2515 -10.36173,25.5742 -22.11463,22.11463 l -53.23891,-15.67136 c -11.7529,-3.45957 -22.11463,-9.86312 -22.11463,-22.11463 l 0,-29.48618 c 0,-12.2515 10.36173,-25.57421 22.11463,-22.11463 z" id="rect3370" inkscape:connector-curvature="0" sodipodi:nodetypes="sssssssss"/><path inkscape:connector-curvature="0" id="path3386" d="m 319.37903,824.18666 c -5.17568,7.30556 -16.68952,144.13974 -81.09477,137.69822" style="display:inline;fill:none;fill-rule:evenodd;stroke:#b3b3b3;stroke-width:2.10382557;stroke-linecap:butt;stroke-linejoin:miter;stroke-opacity:1"/><ellipse transform="matrix(0.96063882,0.2778004,-0.2778004,0.96063882,0,0)" ry="10.130902" rx="20.644102" cy="718.1427" cx="781.59485" id="path4196" style="display:inline;opacity:1;fill:#ff0000;fill-opacity:1;stroke:none;stroke-width:10;stroke-opacity:1"/><path sodipodi:nodetypes="ccccc" inkscape:connector-curvature="0" id="rect4203" d="m 447.7906,815.16682 210.85399,63.64787 0,120.02465 -210.85399,-63.64793 z" style="display:inline;opacity:1;fill:none;fill-opacity:1;stroke:#000000;stroke-width:7.01275158;stroke-opacity:1"/><ellipse style="display:inline;opacity:1;fill:#ff0000;fill-opacity:1;stroke:none;stroke-width:10;stroke-opacity:1" id="ellipse3351" cx="821.88263" cy="717.46136" rx="13.167726" ry="6.4619393" transform="matrix(0.96063882,0.2778004,-0.2778004,0.96063882,0,0)"/><ellipse transform="matrix(0.96063882,0.2778004,-0.2778004,0.96063882,0,0)" ry="6.4619393" rx="13.167726" cy="717.02704" cx="744.84381" id="ellipse3353" style="display:inline;opacity:1;fill:#ff0000;fill-opacity:1;stroke:none;stroke-width:10;stroke-opacity:1"/><ellipse transform="matrix(0.96063882,0.2778004,-0.2778004,0.96063882,0,0)" ry="4.7323732" rx="9.6433268" cy="717.04694" cx="851.24469" id="ellipse3355" style="display:inline;opacity:1;fill:#ff0000;fill-opacity:1;stroke:none;stroke-width:10;stroke-opacity:1"/><ellipse style="display:inline;opacity:1;fill:#ff0000;fill-opacity:1;stroke:none;stroke-width:10;stroke-opacity:1" id="ellipse3357" cx="716.29016" cy="717.38293" rx="9.6433268" ry="4.7323732" transform="matrix(0.96063882,0.2778004,-0.2778004,0.96063882,0,0)"/><path inkscape:connector-curvature="0" d="m 535.41351,885.75169 44.73593,12.82784 m -42.81923,-9.23609 -1.95543,-3.59336 3.59338,-1.95546 m 39.38827,11.21922 1.95542,3.59336 -3.59336,1.95544" style="display:inline;fill:none;fill-opacity:1;stroke:#000000;stroke-width:0.70127517;stroke-miterlimit:4;stroke-dasharray:none;stroke-dashoffset:0;stroke-opacity:1" id="path3366"/><path inkscape:connector-curvature="0" id="path3398" d="m 85.263915,984.73967 0,-78.22687" style="display:inline;fill:none;fill-rule:evenodd;stroke:#4d4d4d;stroke-width:2.10382557;stroke-linecap:butt;stroke-linejoin:miter;stroke-opacity:1"/><path sodipodi:nodetypes="ccc" inkscape:connector-curvature="0" id="path3338-5" d="m 149.85452,906.34713 15.03161,0 389.53748,0" style="display:inline;fill:#ff0000;fill-rule:evenodd;stroke:#ff0000;stroke-width:2.8406477;stroke-linecap:butt;stroke-linejoin:miter;stroke-opacity:0.82320437"/><rect y="884.60382" x="20.673326" height="43.486752" width="129.18117" id="rect3336" style="display:inline;opacity:1;fill:#ffffff;fill-opacity:1;stroke:#000000;stroke-width:5.61020136"/><path inkscape:connector-curvature="0" id="path3400" d="m 312.16131,800.18424 0,57.13959" style="display:inline;fill:none;fill-rule:evenodd;stroke:#4d4d4d;stroke-width:2.80510068;stroke-linecap:butt;stroke-linejoin:miter;stroke-opacity:1"/><path inkscape:connector-curvature="0" id="path3400-1" d="m 538.02597,946.95447 0,63.26163" style="display:inline;fill:none;fill-rule:evenodd;stroke:#4d4d4d;stroke-width:2.95155096;stroke-linecap:butt;stroke-linejoin:miter;stroke-opacity:1"/><path inkscape:connector-curvature="0" style="display:inline;opacity:1;fill:none;fill-opacity:1;stroke:#000000;stroke-width:5.61034441;stroke-miterlimit:4;stroke-dasharray:none" d="m 305.60803,869.59221 18.16379,5.34667 c 11.7529,3.45958 22.11465,9.86313 22.11465,22.11463 l 0,29.48619 c 0,12.2515 -10.36173,25.57419 -22.11465,22.11463 l -19.13102,-5.63139" id="path4174"/><g transform="matrix(0.95175923,0.30684585,-0.30684585,0.95175923,0,0)" style="font-style:normal;font-variant:normal;font-weight:normal;font-stretch:normal;font-size:10.51912785px;line-height:125%;font-family:&apos;Open Sans&apos;;-inkscape-font-specification:&apos;Open Sans&apos;;text-align:center;letter-spacing:0px;word-spacing:0px;text-anchor:middle;fill:#000000;fill-opacity:1;stroke:none;stroke-width:1px;stroke-linecap:butt;stroke-linejoin:miter;stroke-opacity:1" id="text3377"><path d="m 799.00697,674.05048 0,-25.03087 2.91056,0 0,22.39424 11.04303,0 0,2.63663 -13.95359,0 z" style="font-style:normal;font-variant:normal;font-weight:normal;font-stretch:normal;font-size:35.06375885px;font-family:&apos;Open Sans&apos;;-inkscape-font-specification:&apos;Open Sans&apos;;text-align:center;text-anchor:middle" id="path3387"/></g><g style="font-style:normal;font-variant:normal;font-weight:normal;font-stretch:normal;font-size:35.06375885px;line-height:125%;font-family:&apos;Open Sans&apos;;-inkscape-font-specification:&apos;Open Sans&apos;;letter-spacing:0px;word-spacing:0px;fill:#000000;fill-opacity:1;stroke:none;stroke-width:1px;stroke-linecap:butt;stroke-linejoin:miter;stroke-opacity:1" id="text3383"><path d="m 28.833179,995.39978 q 0,4.95822 -2.698266,7.58802 -2.684569,2.6161 -7.738681,2.6161 l -5.547196,0 0,-20.02471 6.136158,0 q 4.670602,0 7.259293,2.58869 2.588692,2.58869 2.588692,7.2319 z m -2.465421,0.0822 q 0,-3.91728 -1.972336,-5.90331 -1.95864,-1.98603 -5.834829,-1.98603 l -3.383104,0 0,15.99788 2.835233,0 q 4.163821,0 6.259429,-2.0409 2.095607,-2.05448 2.095607,-6.06764 z" style="font-style:normal;font-variant:normal;font-weight:normal;font-stretch:normal;font-size:28.05100632px;font-family:&apos;Open Sans&apos;;-inkscape-font-specification:&apos;Open Sans&apos;;text-align:center;text-anchor:middle" id="path3407"/><path d="m 35.215878,1005.6039 -2.273665,0 0,-15.01169 2.273665,0 0,15.01169 z m -2.46542,-19.07963 q 0,-0.78072 0.38351,-1.13684 0.38351,-0.36981 0.958774,-0.36981 0.547872,0 0.945078,0.36981 0.397207,0.36982 0.397207,1.13684 0,0.76702 -0.397207,1.15053 -0.397206,0.36981 -0.945078,0.36981 -0.575264,0 -0.958774,-0.36981 -0.38351,-0.38351 -0.38351,-1.15053 z" style="font-style:normal;font-variant:normal;font-weight:normal;font-stretch:normal;font-size:28.05100632px;font-family:&apos;Open Sans&apos;;-inkscape-font-specification:&apos;Open Sans&apos;;text-align:center;text-anchor:middle" id="path3409"/><path d="m 53.021693,998.08435 q 0,3.67075 -1.849065,5.73895 -1.849066,2.0545 -5.108899,2.0545 -2.013427,0 -3.57486,-0.9451 -1.561433,-0.945 -2.410633,-2.7119 -0.849201,-1.7669 -0.849201,-4.13645 0,-3.67074 1.835369,-5.71156 1.835368,-2.05452 5.095202,-2.05452 3.15026,0 4.999325,2.09561 1.862762,2.09561 1.862762,5.67047 z m -11.436812,0 q 0,2.87635 1.15053,4.38295 1.150529,1.5067 3.383105,1.5067 2.232575,0 3.383104,-1.493 1.164227,-1.5066 1.164227,-4.39665 0,-2.86263 -1.164227,-4.34188 -1.150529,-1.49295 -3.410498,-1.49295 -2.232575,0 -3.369408,1.46556 -1.136833,1.46555 -1.136833,4.36927 z" style="font-style:normal;font-variant:normal;font-weight:normal;font-stretch:normal;font-size:28.05100632px;font-family:&apos;Open Sans&apos;;-inkscape-font-specification:&apos;Open Sans&apos;;text-align:center;text-anchor:middle" id="path3411"/><path d="m 67.211559,1003.5905 -0.123271,0 q -1.57513,2.2873 -4.711692,2.2873 -2.944808,0 -4.588422,-2.0134 -1.629917,-2.0134 -1.629917,-5.72526 0,-3.71183 1.643614,-5.76635 1.643614,-2.05452 4.574725,-2.05452 3.054382,0 4.684298,2.21888 l 0.178059,0 -0.09588,-1.08204 -0.05479,-1.05465 0,-6.10877 2.273666,0 0,21.31221 -1.849066,0 -0.301329,-2.0134 z m -4.547331,0.3835 q 2.328453,0 3.369408,-1.2601 1.054652,-1.2738 1.054652,-4.09538 l 0,-0.47938 q 0,-3.19135 -1.068349,-4.54733 -1.054652,-1.36968 -3.383105,-1.36968 -1.99973,0 -3.068078,1.56143 -1.054653,1.54774 -1.054653,4.38297 0,2.87637 1.054653,4.34187 1.054652,1.4656 3.095472,1.4656 z" style="font-style:normal;font-variant:normal;font-weight:normal;font-stretch:normal;font-size:28.05100632px;font-family:&apos;Open Sans&apos;;-inkscape-font-specification:&apos;Open Sans&apos;;text-align:center;text-anchor:middle" id="path3413"/><path d="m 80.538526,1005.8778 q -3.328318,0 -5.259564,-2.0271 -1.917549,-2.0271 -1.917549,-5.62938 0,-3.62965 1.780581,-5.76635 1.794278,-2.1367 4.80757,-2.1367 2.821537,0 4.465151,1.86277 1.643613,1.84906 1.643613,4.88975 l 0,1.43816 -10.341069,0 q 0.06848,2.64345 1.328588,4.01315 1.2738,1.3697 3.574859,1.3697 2.424331,0 4.793874,-1.0136 l 0,2.0271 q -1.205317,0.5205 -2.287363,0.7397 -1.068349,0.2328 -2.588691,0.2328 z m -0.616355,-13.65567 q -1.807975,0 -2.890021,1.17792 -1.068349,1.17792 -1.260104,3.25983 l 7.848255,0 q 0,-2.15039 -0.958774,-3.28722 -0.958775,-1.15053 -2.739356,-1.15053 z" style="font-style:normal;font-variant:normal;font-weight:normal;font-stretch:normal;font-size:28.05100632px;font-family:&apos;Open Sans&apos;;-inkscape-font-specification:&apos;Open Sans&apos;;text-align:center;text-anchor:middle" id="path3415"/><path d="m 99.481172,1005.6039 -2.273666,0 0,-21.31221 2.273666,0 0,21.31221 z" style="font-style:normal;font-variant:normal;font-weight:normal;font-stretch:normal;font-size:28.05100632px;font-family:&apos;Open Sans&apos;;-inkscape-font-specification:&apos;Open Sans&apos;;text-align:center;text-anchor:middle" id="path3417"/><path d="m 113.56146,1005.6039 -0.452,-2.1367 -0.10957,0 q -1.12314,1.4108 -2.24627,1.9175 -1.10944,0.4931 -2.78045,0.4931 -2.23257,0 -3.50637,-1.1505 -1.26011,-1.1505 -1.26011,-3.2735 0,-4.54737 7.27299,-4.76652 l 2.5476,-0.0822 0,-0.93138 q 0,-1.76689 -0.76702,-2.60239 -0.75332,-0.8492 -2.42433,-0.8492 -1.87646,0 -4.246,1.15053 l -0.69853,-1.73949 q 1.10944,-0.60266 2.42433,-0.94508 1.32858,-0.34242 2.65717,-0.34242 2.68457,0 3.97207,1.19162 1.30119,1.19162 1.30119,3.8214 l 0,10.24521 -1.6847,0 z m -5.13629,-1.6025 q 2.123,0 3.32831,-1.1643 1.21902,-1.1642 1.21902,-3.2598 l 0,-1.35598 -2.27367,0.0959 q -2.71196,0.0959 -3.91728,0.84921 -1.19162,0.73962 -1.19162,2.3148 0,1.2327 0.73963,1.8764 0.75332,0.6438 2.09561,0.6438 z" style="font-style:normal;font-variant:normal;font-weight:normal;font-stretch:normal;font-size:28.05100632px;font-family:&apos;Open Sans&apos;;-inkscape-font-specification:&apos;Open Sans&apos;;text-align:center;text-anchor:middle" id="path3419"/><path d="m 129.62779,1001.5085 q 0,2.0957 -1.56144,3.2325 -1.56143,1.1368 -4.38297,1.1368 -2.98589,0 -4.6569,-0.9451 l 0,-2.1093 q 1.08204,0.5479 2.31475,0.8629 1.24641,0.3151 2.39694,0.3151 1.78058,0 2.73936,-0.5616 0.95877,-0.5753 0.95877,-1.7395 0,-0.8766 -0.76702,-1.4929 -0.75332,-0.6301 -2.9585,-1.4793 -2.09561,-0.78072 -2.9859,-1.35598 -0.8766,-0.58896 -1.31489,-1.32859 -0.4246,-0.73963 -0.4246,-1.76689 0,-1.83536 1.49295,-2.89002 1.49295,-1.06835 4.09533,-1.06835 2.42433,0 4.73909,0.98617 l -0.80811,1.84907 q -2.25997,-0.93138 -4.09534,-0.93138 -1.61622,0 -2.43802,0.50678 -0.82181,0.50678 -0.82181,1.39707 0,0.60266 0.30133,1.02726 0.31502,0.4246 0.99986,0.80811 0.68484,0.38351 2.62978,1.10944 2.67088,0.97247 3.60226,1.95864 0.94508,0.98617 0.94508,2.47907 z" style="font-style:normal;font-variant:normal;font-weight:normal;font-stretch:normal;font-size:28.05100632px;font-family:&apos;Open Sans&apos;;-inkscape-font-specification:&apos;Open Sans&apos;;text-align:center;text-anchor:middle" id="path3421"/><path d="m 139.65383,1005.8778 q -3.32832,0 -5.25956,-2.0271 -1.91755,-2.0271 -1.91755,-5.62938 0,-3.62965 1.78058,-5.76635 1.79428,-2.1367 4.80757,-2.1367 2.82153,0 4.46515,1.86277 1.64361,1.84906 1.64361,4.88975 l 0,1.43816 -10.34107,0 q 0.0685,2.64345 1.32859,4.01315 1.2738,1.3697 3.57486,1.3697 2.42433,0 4.79387,-1.0136 l 0,2.0271 q -1.20531,0.5205 -2.28736,0.7397 -1.06835,0.2328 -2.58869,0.2328 z m -0.61636,-13.65567 q -1.80797,0 -2.89002,1.17792 -1.06835,1.17792 -1.2601,3.25983 l 7.84825,0 q 0,-2.15039 -0.95877,-3.28722 -0.95877,-1.15053 -2.73936,-1.15053 z" style="font-style:normal;font-variant:normal;font-weight:normal;font-stretch:normal;font-size:28.05100632px;font-family:&apos;Open Sans&apos;;-inkscape-font-specification:&apos;Open Sans&apos;;text-align:center;text-anchor:middle" id="path3423"/><path d="m 155.88452,990.31827 q 0.99986,0 1.79428,0.16437 l -0.31503,2.1093 q -0.93138,-0.20545 -1.64361,-0.20545 -1.82168,0 -3.12287,1.47925 -1.2875,1.47925 -1.2875,3.68443 l 0,8.05373 -2.27366,0 0,-15.01169 1.87646,0 0.26023,2.78045 0.10958,0 q 0.8355,-1.46556 2.01343,-2.25997 1.17792,-0.79442 2.58869,-0.79442 z" style="font-style:normal;font-variant:normal;font-weight:normal;font-stretch:normal;font-size:28.05100632px;font-family:&apos;Open Sans&apos;;-inkscape-font-specification:&apos;Open Sans&apos;;text-align:center;text-anchor:middle" id="path3425"/></g><g style="font-style:normal;font-variant:normal;font-weight:normal;font-stretch:normal;font-size:35.06375885px;line-height:125%;font-family:&apos;Open Sans&apos;;-inkscape-font-specification:&apos;Open Sans&apos;;text-align:center;letter-spacing:0px;word-spacing:0px;text-anchor:middle;fill:#000000;fill-opacity:1;stroke:none;stroke-width:1px;stroke-linecap:butt;stroke-linejoin:miter;stroke-opacity:1" id="text3387"><path d="m 179.65181,754.49597 -2.32846,0 0,-20.02469 11.16288,0 0,2.06821 -8.83442,0 0,7.32778 8.30025,0 0,2.06821 -8.30025,0 0,8.56049 z" style="font-style:normal;font-variant:normal;font-weight:normal;font-stretch:normal;font-size:28.05100632px;font-family:&apos;Open Sans&apos;;-inkscape-font-specification:&apos;Open Sans&apos;;text-align:center;text-anchor:middle" id="path3428"/><path d="m 193.7184,754.49597 -2.27367,0 0,-15.01167 2.27367,0 0,15.01167 z m -2.46542,-19.07961 q 0,-0.78072 0.38351,-1.13684 0.38351,-0.36981 0.95877,-0.36981 0.54788,0 0.94508,0.36981 0.39721,0.36982 0.39721,1.13684 0,0.76702 -0.39721,1.15053 -0.3972,0.36981 -0.94508,0.36981 -0.57526,0 -0.95877,-0.36981 -0.38351,-0.38351 -0.38351,-1.15053 z" style="font-style:normal;font-variant:normal;font-weight:normal;font-stretch:normal;font-size:28.05100632px;font-family:&apos;Open Sans&apos;;-inkscape-font-specification:&apos;Open Sans&apos;;text-align:center;text-anchor:middle" id="path3430"/><path d="m 200.84073,754.49597 -2.27367,0 0,-21.31219 2.27367,0 0,21.31219 z" style="font-style:normal;font-variant:normal;font-weight:normal;font-stretch:normal;font-size:28.05100632px;font-family:&apos;Open Sans&apos;;-inkscape-font-specification:&apos;Open Sans&apos;;text-align:center;text-anchor:middle" id="path3432"/><path d="m 223.19387,752.48254 -0.12327,0 q -1.57513,2.28737 -4.71169,2.28737 -2.94481,0 -4.58842,-2.01343 -1.62992,-2.01343 -1.62992,-5.72525 0,-3.71183 1.64361,-5.76635 1.64362,-2.05452 4.57473,-2.05452 3.05438,0 4.6843,2.21888 l 0.17806,0 -0.0959,-1.08204 -0.0548,-1.05465 0,-6.10877 2.27367,0 0,21.31219 -1.84907,0 -0.30133,-2.01343 z m -4.54733,0.38351 q 2.32845,0 3.36941,-1.2601 1.05465,-1.2738 1.05465,-4.09534 l 0,-0.47938 q 0,-3.19135 -1.06835,-4.54733 -1.05465,-1.36968 -3.3831,-1.36968 -1.99973,0 -3.06808,1.56143 -1.05465,1.54774 -1.05465,4.38297 0,2.87632 1.05465,4.34188 1.05465,1.46555 3.09547,1.46555 z" style="font-style:normal;font-variant:normal;font-weight:normal;font-stretch:normal;font-size:28.05100632px;font-family:&apos;Open Sans&apos;;-inkscape-font-specification:&apos;Open Sans&apos;;text-align:center;text-anchor:middle" id="path3434"/><path d="m 236.52084,754.76991 q -3.32832,0 -5.25956,-2.02713 -1.91755,-2.02712 -1.91755,-5.62937 0,-3.62965 1.78058,-5.76635 1.79428,-2.1367 4.80757,-2.1367 2.82153,0 4.46515,1.86277 1.64361,1.84906 1.64361,4.88975 l 0,1.43816 -10.34107,0 q 0.0685,2.64348 1.32859,4.01316 1.2738,1.36967 3.57486,1.36967 2.42433,0 4.79387,-1.01356 l 0,2.02713 q -1.20531,0.52047 -2.28736,0.73962 -1.06835,0.23285 -2.58869,0.23285 z m -0.61636,-13.65569 q -1.80797,0 -2.89002,1.17792 -1.06835,1.17792 -1.2601,3.25983 l 7.84825,0 q 0,-2.15039 -0.95877,-3.28722 -0.95877,-1.15053 -2.73936,-1.15053 z" style="font-style:normal;font-variant:normal;font-weight:normal;font-stretch:normal;font-size:28.05100632px;font-family:&apos;Open Sans&apos;;-inkscape-font-specification:&apos;Open Sans&apos;;text-align:center;text-anchor:middle" id="path3436"/><path d="m 262.87344,750.40063 q 0,2.09561 -1.56143,3.23244 -1.56143,1.13684 -4.38297,1.13684 -2.9859,0 -4.6569,-0.94508 l 0,-2.1093 q 1.08204,0.54787 2.31475,0.86289 1.24641,0.31503 2.39694,0.31503 1.78058,0 2.73935,-0.56157 0.95878,-0.57526 0.95878,-1.73949 0,-0.87659 -0.76702,-1.49295 -0.75332,-0.63005 -2.95851,-1.47925 -2.0956,-0.78072 -2.98589,-1.35598 -0.8766,-0.58896 -1.31489,-1.32859 -0.42461,-0.73963 -0.42461,-1.76689 0,-1.83536 1.49295,-2.89002 1.49295,-1.06835 4.09534,-1.06835 2.42433,0 4.73909,0.98617 l -0.80811,1.84907 q -2.25997,-0.93138 -4.09534,-0.93138 -1.61622,0 -2.43803,0.50678 -0.8218,0.50678 -0.8218,1.39707 0,0.60266 0.30133,1.02726 0.31502,0.4246 0.99986,0.80811 0.68484,0.38351 2.62978,1.10944 2.67087,0.97247 3.60226,1.95864 0.94507,0.98617 0.94507,2.47911 z" style="font-style:normal;font-variant:normal;font-weight:normal;font-stretch:normal;font-size:28.05100632px;font-family:&apos;Open Sans&apos;;-inkscape-font-specification:&apos;Open Sans&apos;;text-align:center;text-anchor:middle" id="path3438"/><path d="m 279.51503,746.97644 q 0,3.67074 -1.84906,5.73895 -1.84907,2.05452 -5.1089,2.05452 -2.01343,0 -3.57486,-0.94508 -1.56144,-0.94508 -2.41064,-2.71196 -0.8492,-1.76689 -0.8492,-4.13643 0,-3.67074 1.83537,-5.71156 1.83537,-2.05452 5.0952,-2.05452 3.15026,0 4.99933,2.09561 1.86276,2.09561 1.86276,5.67047 z m -11.43681,0 q 0,2.87632 1.15053,4.38297 1.15053,1.50664 3.3831,1.50664 2.23258,0 3.38311,-1.49294 1.16422,-1.50665 1.16422,-4.39667 0,-2.86263 -1.16422,-4.34188 -1.15053,-1.49295 -3.4105,-1.49295 -2.23258,0 -3.36941,1.46556 -1.13683,1.46555 -1.13683,4.36927 z" style="font-style:normal;font-variant:normal;font-weight:normal;font-stretch:normal;font-size:28.05100632px;font-family:&apos;Open Sans&apos;;-inkscape-font-specification:&apos;Open Sans&apos;;text-align:center;text-anchor:middle" id="path3440"/><path d="m 285.76076,754.49597 -2.27366,0 0,-15.01167 2.27366,0 0,15.01167 z m -2.46542,-19.07961 q 0,-0.78072 0.38351,-1.13684 0.38351,-0.36981 0.95878,-0.36981 0.54787,0 0.94508,0.36981 0.3972,0.36982 0.3972,1.13684 0,0.76702 -0.3972,1.15053 -0.39721,0.36981 -0.94508,0.36981 -0.57527,0 -0.95878,-0.36981 -0.38351,-0.38351 -0.38351,-1.15053 z" style="font-style:normal;font-variant:normal;font-weight:normal;font-stretch:normal;font-size:28.05100632px;font-family:&apos;Open Sans&apos;;-inkscape-font-specification:&apos;Open Sans&apos;;text-align:center;text-anchor:middle" id="path3442"/><path d="m 296.95103,754.76991 q -3.32832,0 -5.25956,-2.02713 -1.91755,-2.02712 -1.91755,-5.62937 0,-3.62965 1.78058,-5.76635 1.79428,-2.1367 4.80757,-2.1367 2.82154,0 4.46515,1.86277 1.64361,1.84906 1.64361,4.88975 l 0,1.43816 -10.34107,0 q 0.0685,2.64348 1.32859,4.01316 1.2738,1.36967 3.57486,1.36967 2.42433,0 4.79387,-1.01356 l 0,2.02713 q -1.20531,0.52047 -2.28736,0.73962 -1.06835,0.23285 -2.58869,0.23285 z m -0.61635,-13.65569 q -1.80798,0 -2.89003,1.17792 -1.06834,1.17792 -1.2601,3.25983 l 7.84826,0 q 0,-2.15039 -0.95878,-3.28722 -0.95877,-1.15053 -2.73935,-1.15053 z" style="font-style:normal;font-variant:normal;font-weight:normal;font-stretch:normal;font-size:28.05100632px;font-family:&apos;Open Sans&apos;;-inkscape-font-specification:&apos;Open Sans&apos;;text-align:center;text-anchor:middle" id="path3444"/><path d="m 323.83782,752.48254 -0.12327,0 q -1.57513,2.28737 -4.7117,2.28737 -2.9448,0 -4.58842,-2.01343 -1.62992,-2.01343 -1.62992,-5.72525 0,-3.71183 1.64362,-5.76635 1.64361,-2.05452 4.57472,-2.05452 3.05438,0 4.6843,2.21888 l 0.17806,0 -0.0959,-1.08204 -0.0548,-1.05465 0,-6.10877 2.27366,0 0,21.31219 -1.84906,0 -0.30133,-2.01343 z m -4.54733,0.38351 q 2.32845,0 3.3694,-1.2601 1.05466,-1.2738 1.05466,-4.09534 l 0,-0.47938 q 0,-3.19135 -1.06835,-4.54733 -1.05466,-1.36968 -3.38311,-1.36968 -1.99973,0 -3.06808,1.56143 -1.05465,1.54774 -1.05465,4.38297 0,2.87632 1.05465,4.34188 1.05465,1.46555 3.09548,1.46555 z" style="font-style:normal;font-variant:normal;font-weight:normal;font-stretch:normal;font-size:28.05100632px;font-family:&apos;Open Sans&apos;;-inkscape-font-specification:&apos;Open Sans&apos;;text-align:center;text-anchor:middle" id="path3446"/><path d="m 332.78181,734.47128 -0.54787,7.2319 -1.43816,0 -0.56157,-7.2319 2.5476,0 z" style="font-style:normal;font-variant:normal;font-weight:normal;font-stretch:normal;font-size:28.05100632px;font-family:&apos;Open Sans&apos;;-inkscape-font-specification:&apos;Open Sans&apos;;text-align:center;text-anchor:middle" id="path3448"/><path d="m 346.24575,754.49597 -0.45199,-2.1367 -0.10958,0 q -1.12313,1.41077 -2.24627,1.91755 -1.10944,0.49309 -2.78044,0.49309 -2.23258,0 -3.50638,-1.15053 -1.2601,-1.15053 -1.2601,-3.27353 0,-4.54733 7.27299,-4.76648 l 2.5476,-0.0822 0,-0.93138 q 0,-1.76689 -0.76702,-2.60239 -0.75332,-0.8492 -2.42433,-0.8492 -1.87646,0 -4.246,1.15053 l -0.69854,-1.73949 q 1.10944,-0.60266 2.42433,-0.94508 1.32859,-0.34242 2.65718,-0.34242 2.68456,0 3.97206,1.19162 1.3012,1.19162 1.3012,3.8214 l 0,10.24519 -1.68471,0 z m -5.13629,-1.60252 q 2.123,0 3.32832,-1.16423 1.21901,-1.16422 1.21901,-3.25983 l 0,-1.35598 -2.27366,0.0959 q -2.71197,0.0959 -3.91728,0.8492 -1.19162,0.73963 -1.19162,2.31476 0,1.23271 0.73962,1.87646 0.75333,0.64375 2.09561,0.64375 z" style="font-style:normal;font-variant:normal;font-weight:normal;font-stretch:normal;font-size:28.05100632px;font-family:&apos;Open Sans&apos;;-inkscape-font-specification:&apos;Open Sans&apos;;text-align:center;text-anchor:middle" id="path3450"/><path d="m 359.47683,739.21036 q 0.99987,0 1.79428,0.16437 l -0.31503,2.1093 q -0.93138,-0.20545 -1.64361,-0.20545 -1.82167,0 -3.12287,1.47925 -1.28749,1.47925 -1.28749,3.68443 l 0,8.05371 -2.27367,0 0,-15.01167 1.87646,0 0.26024,2.78045 0.10957,0 q 0.83551,-1.46556 2.01343,-2.25997 1.17792,-0.79442 2.58869,-0.79442 z" style="font-style:normal;font-variant:normal;font-weight:normal;font-stretch:normal;font-size:28.05100632px;font-family:&apos;Open Sans&apos;;-inkscape-font-specification:&apos;Open Sans&apos;;text-align:center;text-anchor:middle" id="path3452"/><path d="m 373.31059,754.49597 -0.452,-2.1367 -0.10957,0 q -1.12314,1.41077 -2.24627,1.91755 -1.10944,0.49309 -2.78045,0.49309 -2.23257,0 -3.50638,-1.15053 -1.2601,-1.15053 -1.2601,-3.27353 0,-4.54733 7.27299,-4.76648 l 2.5476,-0.0822 0,-0.93138 q 0,-1.76689 -0.76702,-2.60239 -0.75332,-0.8492 -2.42433,-0.8492 -1.87646,0 -4.246,1.15053 l -0.69854,-1.73949 q 1.10944,-0.60266 2.42433,-0.94508 1.32859,-0.34242 2.65718,-0.34242 2.68457,0 3.97207,1.19162 1.30119,1.19162 1.30119,3.8214 l 0,10.24519 -1.6847,0 z m -5.1363,-1.60252 q 2.12301,0 3.32832,-1.16423 1.21902,-1.16422 1.21902,-3.25983 l 0,-1.35598 -2.27367,0.0959 q -2.71196,0.0959 -3.91728,0.8492 -1.19162,0.73963 -1.19162,2.31476 0,1.23271 0.73963,1.87646 0.75332,0.64375 2.0956,0.64375 z" style="font-style:normal;font-variant:normal;font-weight:normal;font-stretch:normal;font-size:28.05100632px;font-family:&apos;Open Sans&apos;;-inkscape-font-specification:&apos;Open Sans&apos;;text-align:center;text-anchor:middle" id="path3454"/><path d="m 381.96694,754.49597 -2.27366,0 0,-15.01167 2.27366,0 0,15.01167 z m -2.46542,-19.07961 q 0,-0.78072 0.38351,-1.13684 0.38351,-0.36981 0.95878,-0.36981 0.54787,0 0.94507,0.36981 0.39721,0.36982 0.39721,1.13684 0,0.76702 -0.39721,1.15053 -0.3972,0.36981 -0.94507,0.36981 -0.57527,0 -0.95878,-0.36981 -0.38351,-0.38351 -0.38351,-1.15053 z" style="font-style:normal;font-variant:normal;font-weight:normal;font-stretch:normal;font-size:28.05100632px;font-family:&apos;Open Sans&apos;;-inkscape-font-specification:&apos;Open Sans&apos;;text-align:center;text-anchor:middle" id="path3456"/><path d="m 399.10162,739.4843 0,1.43816 -2.78045,0.32873 q 0.38351,0.47938 0.68484,1.2601 0.30133,0.76702 0.30133,1.73949 0,2.20518 -1.50665,3.52007 -1.50664,1.31489 -4.13642,1.31489 -0.67115,0 -1.26011,-0.10957 -1.45186,0.76702 -1.45186,1.93125 0,0.61635 0.50678,0.91768 0.50678,0.28763 1.7395,0.28763 l 2.65717,0 q 2.43803,0 3.73922,1.02726 1.31489,1.02726 1.31489,2.9859 0,2.49281 -1.99973,3.79401 -1.99973,1.31489 -5.83483,1.31489 -2.9448,0 -4.54733,-1.09574 -1.58882,-1.09575 -1.58882,-3.09548 0,-1.36968 0.87659,-2.36954 0.87659,-0.99987 2.46542,-1.35598 -0.57526,-0.26024 -0.97247,-0.80811 -0.38351,-0.54787 -0.38351,-1.2738 0,-0.82181 0.4383,-1.43816 0.43829,-0.61636 1.38337,-1.19162 -1.16422,-0.47939 -1.90385,-1.62992 -0.72593,-1.15053 -0.72593,-2.62978 0,-2.46542 1.47925,-3.79401 1.47925,-1.34229 4.19122,-1.34229 1.17792,0 2.123,0.27394 l 5.19108,0 z m -11.97099,17.53188 q 0,1.21901 1.02726,1.84906 1.02726,0.63006 2.94481,0.63006 2.86262,0 4.2323,-0.8629 1.38338,-0.8492 1.38338,-2.31476 0,-1.21901 -0.75333,-1.6984 -0.75332,-0.46569 -2.83523,-0.46569 l -2.72566,0 q -1.54773,0 -2.41063,0.73963 -0.8629,0.73962 -0.8629,2.123 z m 1.23271,-12.72431 q 0,1.57513 0.89029,2.38324 0.89029,0.80811 2.47912,0.80811 3.32832,0 3.32832,-3.23244 0,-3.3831 -3.36941,-3.3831 -1.60252,0 -2.46542,0.86289 -0.8629,0.8629 -0.8629,2.5613 z" style="font-style:normal;font-variant:normal;font-weight:normal;font-stretch:normal;font-size:28.05100632px;font-family:&apos;Open Sans&apos;;-inkscape-font-specification:&apos;Open Sans&apos;;text-align:center;text-anchor:middle" id="path3458"/><path d="m 412.48338,754.49597 0,-9.71102 q 0,-1.83536 -0.83551,-2.73935 -0.8355,-0.90399 -2.61608,-0.90399 -2.35585,0 -3.45159,1.2738 -1.09574,1.2738 -1.09574,4.20491 l 0,7.87565 -2.27367,0 0,-15.01167 1.84907,0 0.36981,2.05452 0.10958,0 q 0.69853,-1.10944 1.95863,-1.7121 1.26011,-0.61636 2.80784,-0.61636 2.71197,0 4.08165,1.3149 1.36967,1.30119 1.36967,4.17751 l 0,9.7932 -2.27366,0 z" style="font-style:normal;font-variant:normal;font-weight:normal;font-stretch:normal;font-size:28.05100632px;font-family:&apos;Open Sans&apos;;-inkscape-font-specification:&apos;Open Sans&apos;;text-align:center;text-anchor:middle" id="path3460"/><path d="m 425.75556,754.76991 q -3.32832,0 -5.25957,-2.02713 -1.91755,-2.02712 -1.91755,-5.62937 0,-3.62965 1.78059,-5.76635 1.79427,-2.1367 4.80757,-2.1367 2.82153,0 4.46515,1.86277 1.64361,1.84906 1.64361,4.88975 l 0,1.43816 -10.34107,0 q 0.0685,2.64348 1.32859,4.01316 1.2738,1.36967 3.57486,1.36967 2.42433,0 4.79387,-1.01356 l 0,2.02713 q -1.20532,0.52047 -2.28736,0.73962 -1.06835,0.23285 -2.58869,0.23285 z m -0.61636,-13.65569 q -1.80797,0 -2.89002,1.17792 -1.06835,1.17792 -1.2601,3.25983 l 7.84825,0 q 0,-2.15039 -0.95877,-3.28722 -0.95878,-1.15053 -2.73936,-1.15053 z m -1.6847,-3.95837 q 0.65744,-0.8492 1.41077,-2.05452 0.76702,-1.20532 1.20531,-2.09561 l 2.76675,0 0,0.28764 q -0.60266,0.89029 -1.79428,2.19148 -1.19161,1.30119 -2.06821,2.01343 l -1.52034,0 0,-0.34242 z" style="font-style:normal;font-variant:normal;font-weight:normal;font-stretch:normal;font-size:28.05100632px;font-family:&apos;Open Sans&apos;;-inkscape-font-specification:&apos;Open Sans&apos;;text-align:center;text-anchor:middle" id="path3462"/><path d="m 441.47947,754.76991 q -3.32832,0 -5.25957,-2.02713 -1.91755,-2.02712 -1.91755,-5.62937 0,-3.62965 1.78058,-5.76635 1.79428,-2.1367 4.80757,-2.1367 2.82154,0 4.46515,1.86277 1.64362,1.84906 1.64362,4.88975 l 0,1.43816 -10.34107,0 q 0.0685,2.64348 1.32859,4.01316 1.2738,1.36967 3.57486,1.36967 2.42433,0 4.79387,-1.01356 l 0,2.02713 q -1.20532,0.52047 -2.28736,0.73962 -1.06835,0.23285 -2.58869,0.23285 z m -0.61636,-13.65569 q -1.80798,0 -2.89002,1.17792 -1.06835,1.17792 -1.2601,3.25983 l 7.84825,0 q 0,-2.15039 -0.95877,-3.28722 -0.95878,-1.15053 -2.73936,-1.15053 z" style="font-style:normal;font-variant:normal;font-weight:normal;font-stretch:normal;font-size:28.05100632px;font-family:&apos;Open Sans&apos;;-inkscape-font-specification:&apos;Open Sans&apos;;text-align:center;text-anchor:middle" id="path3464"/><path d="m 189.39022,787.5463 -0.12327,0 q -1.57513,2.28737 -4.7117,2.28737 -2.9448,0 -4.58842,-2.01343 -1.62991,-2.01343 -1.62991,-5.72526 0,-3.71182 1.64361,-5.76634 1.64361,-2.05452 4.57472,-2.05452 3.05439,0 4.6843,2.21888 l 0.17806,0 -0.0959,-1.08204 -0.0548,-1.05466 0,-6.10876 2.27366,0 0,21.31219 -1.84906,0 -0.30133,-2.01343 z m -4.54733,0.38351 q 2.32845,0 3.3694,-1.2601 1.05466,-1.2738 1.05466,-4.09534 l 0,-0.47939 q 0,-3.19135 -1.06835,-4.54733 -1.05465,-1.36967 -3.38311,-1.36967 -1.99973,0 -3.06808,1.56143 -1.05465,1.54773 -1.05465,4.38297 0,2.87632 1.05465,4.34188 1.05466,1.46555 3.09548,1.46555 z" style="font-style:normal;font-variant:normal;font-weight:normal;font-stretch:normal;font-size:28.05100632px;font-family:&apos;Open Sans&apos;;-inkscape-font-specification:&apos;Open Sans&apos;;text-align:center;text-anchor:middle" id="path3466"/><path d="m 205.6072,789.55973 -0.45199,-2.1367 -0.10957,0 q -1.12314,1.41077 -2.24628,1.91755 -1.10943,0.49309 -2.78044,0.49309 -2.23258,0 -3.50638,-1.15053 -1.2601,-1.15053 -1.2601,-3.27353 0,-4.54734 7.27299,-4.76648 l 2.5476,-0.0822 0,-0.93138 q 0,-1.76688 -0.76702,-2.60238 -0.75332,-0.8492 -2.42433,-0.8492 -1.87646,0 -4.246,1.15052 l -0.69854,-1.73949 q 1.10944,-0.60265 2.42433,-0.94507 1.32859,-0.34242 2.65718,-0.34242 2.68457,0 3.97206,1.19162 1.3012,1.19162 1.3012,3.8214 l 0,10.24519 -1.68471,0 z m -5.13629,-1.60252 q 2.123,0 3.32832,-1.16423 1.21901,-1.16423 1.21901,-3.25983 l 0,-1.35599 -2.27366,0.0959 q -2.71196,0.0959 -3.91728,0.8492 -1.19162,0.73963 -1.19162,2.31476 0,1.23271 0.73962,1.87646 0.75333,0.64375 2.09561,0.64375 z" style="font-style:normal;font-variant:normal;font-weight:normal;font-stretch:normal;font-size:28.05100632px;font-family:&apos;Open Sans&apos;;-inkscape-font-specification:&apos;Open Sans&apos;;text-align:center;text-anchor:middle" id="path3468"/><path d="m 222.26249,789.55973 0,-9.71102 q 0,-1.83537 -0.8355,-2.73935 -0.83551,-0.90399 -2.61609,-0.90399 -2.35584,0 -3.45159,1.2738 -1.09574,1.2738 -1.09574,4.20491 l 0,7.87565 -2.27367,0 0,-15.01167 1.84907,0 0.36981,2.05452 0.10958,0 q 0.69853,-1.10944 1.95864,-1.7121 1.2601,-0.61636 2.80784,-0.61636 2.71196,0 4.08164,1.31489 1.36968,1.3012 1.36968,4.17752 l 0,9.7932 -2.27367,0 z" style="font-style:normal;font-variant:normal;font-weight:normal;font-stretch:normal;font-size:28.05100632px;font-family:&apos;Open Sans&apos;;-inkscape-font-specification:&apos;Open Sans&apos;;text-align:center;text-anchor:middle" id="path3470"/><path d="m 238.87668,785.46439 q 0,2.09561 -1.56143,3.23244 -1.56143,1.13684 -4.38297,1.13684 -2.9859,0 -4.6569,-0.94508 l 0,-2.10931 q 1.08204,0.54787 2.31475,0.8629 1.24641,0.31503 2.39694,0.31503 1.78058,0 2.73935,-0.56157 0.95878,-0.57527 0.95878,-1.73949 0,-0.8766 -0.76702,-1.49295 -0.75332,-0.63005 -2.9585,-1.47925 -2.09561,-0.78072 -2.9859,-1.35599 -0.8766,-0.58896 -1.31489,-1.32858 -0.4246,-0.73963 -0.4246,-1.76689 0,-1.83537 1.49294,-2.89002 1.49295,-1.06835 4.09534,-1.06835 2.42433,0 4.73909,0.98617 l -0.80811,1.84907 q -2.25997,-0.93138 -4.09534,-0.93138 -1.61622,0 -2.43803,0.50678 -0.8218,0.50678 -0.8218,1.39707 0,0.60266 0.30133,1.02726 0.31502,0.4246 0.99986,0.80811 0.68484,0.38351 2.62978,1.10944 2.67088,0.97247 3.60226,1.95863 0.94507,0.98617 0.94507,2.47912 z" style="font-style:normal;font-variant:normal;font-weight:normal;font-stretch:normal;font-size:28.05100632px;font-family:&apos;Open Sans&apos;;-inkscape-font-specification:&apos;Open Sans&apos;;text-align:center;text-anchor:middle" id="path3472"/><path d="m 251.9845,774.54806 0,9.73841 q 0,1.83537 0.83551,2.73936 0.8355,0.90398 2.61608,0.90398 2.35585,0 3.43789,-1.28749 1.09574,-1.2875 1.09574,-4.20492 l 0,-7.88934 2.27367,0 0,15.01167 -1.87646,0 -0.32872,-2.01343 -0.12327,0 q -0.69854,1.10944 -1.94495,1.6984 -1.23271,0.58897 -2.82153,0.58897 -2.73936,0 -4.10904,-1.3012 -1.35598,-1.30119 -1.35598,-4.16382 l 0,-9.82059 2.30106,0 z" style="font-style:normal;font-variant:normal;font-weight:normal;font-stretch:normal;font-size:28.05100632px;font-family:&apos;Open Sans&apos;;-inkscape-font-specification:&apos;Open Sans&apos;;text-align:center;text-anchor:middle" id="path3474"/><path d="m 277.32354,789.55973 0,-9.71102 q 0,-1.83537 -0.8355,-2.73935 -0.8355,-0.90399 -2.61608,-0.90399 -2.35585,0 -3.45159,1.2738 -1.09575,1.2738 -1.09575,4.20491 l 0,7.87565 -2.27366,0 0,-15.01167 1.84906,0 0.36982,2.05452 0.10957,0 q 0.69854,-1.10944 1.95864,-1.7121 1.26011,-0.61636 2.80784,-0.61636 2.71196,0 4.08164,1.31489 1.36968,1.3012 1.36968,4.17752 l 0,9.7932 -2.27367,0 z" style="font-style:normal;font-variant:normal;font-weight:normal;font-stretch:normal;font-size:28.05100632px;font-family:&apos;Open Sans&apos;;-inkscape-font-specification:&apos;Open Sans&apos;;text-align:center;text-anchor:middle" id="path3476"/><path d="m 290.59572,789.83367 q -3.32831,0 -5.25956,-2.02713 -1.91755,-2.02712 -1.91755,-5.62938 0,-3.62964 1.78058,-5.76634 1.79428,-2.1367 4.80757,-2.1367 2.82154,0 4.46515,1.86276 1.64362,1.84907 1.64362,4.88976 l 0,1.43816 -10.34107,0 q 0.0685,2.64348 1.32859,4.01315 1.2738,1.36968 3.57485,1.36968 2.42433,0 4.79388,-1.01356 l 0,2.02712 q -1.20532,0.52048 -2.28736,0.73963 -1.06835,0.23285 -2.5887,0.23285 z m -0.61635,-13.65569 q -1.80798,0 -2.89002,1.17792 -1.06835,1.17792 -1.26011,3.25983 l 7.84826,0 q 0,-2.15039 -0.95877,-3.28723 -0.95878,-1.15052 -2.73936,-1.15052 z" style="font-style:normal;font-variant:normal;font-weight:normal;font-stretch:normal;font-size:28.05100632px;font-family:&apos;Open Sans&apos;;-inkscape-font-specification:&apos;Open Sans&apos;;text-align:center;text-anchor:middle" id="path3478"/><path d="m 317.4825,787.5463 -0.12327,0 q -1.57513,2.28737 -4.71169,2.28737 -2.94481,0 -4.58842,-2.01343 -1.62992,-2.01343 -1.62992,-5.72526 0,-3.71182 1.64361,-5.76634 1.64362,-2.05452 4.57473,-2.05452 3.05438,0 4.6843,2.21888 l 0.17806,0 -0.0959,-1.08204 -0.0548,-1.05466 0,-6.10876 2.27367,0 0,21.31219 -1.84907,0 -0.30133,-2.01343 z m -4.54733,0.38351 q 2.32845,0 3.36941,-1.2601 1.05465,-1.2738 1.05465,-4.09534 l 0,-0.47939 q 0,-3.19135 -1.06835,-4.54733 -1.05465,-1.36967 -3.3831,-1.36967 -1.99973,0 -3.06808,1.56143 -1.05465,1.54773 -1.05465,4.38297 0,2.87632 1.05465,4.34188 1.05465,1.46555 3.09547,1.46555 z" style="font-style:normal;font-variant:normal;font-weight:normal;font-stretch:normal;font-size:28.05100632px;font-family:&apos;Open Sans&apos;;-inkscape-font-specification:&apos;Open Sans&apos;;text-align:center;text-anchor:middle" id="path3480"/><path d="m 326.74153,789.55973 -2.27367,0 0,-15.01167 2.27367,0 0,15.01167 z m -2.46543,-19.07962 q 0,-0.78071 0.38351,-1.13683 0.38351,-0.36981 0.95878,-0.36981 0.54787,0 0.94508,0.36981 0.3972,0.36981 0.3972,1.13683 0,0.76702 -0.3972,1.15053 -0.39721,0.36982 -0.94508,0.36982 -0.57527,0 -0.95878,-0.36982 -0.38351,-0.38351 -0.38351,-1.15053 z" style="font-style:normal;font-variant:normal;font-weight:normal;font-stretch:normal;font-size:28.05100632px;font-family:&apos;Open Sans&apos;;-inkscape-font-specification:&apos;Open Sans&apos;;text-align:center;text-anchor:middle" id="path3482"/><path d="m 340.82182,789.55973 -0.45199,-2.1367 -0.10958,0 q -1.12313,1.41077 -2.24627,1.91755 -1.10944,0.49309 -2.78045,0.49309 -2.23257,0 -3.50637,-1.15053 -1.26011,-1.15053 -1.26011,-3.27353 0,-4.54734 7.27299,-4.76648 l 2.54761,-0.0822 0,-0.93138 q 0,-1.76688 -0.76702,-2.60238 -0.75333,-0.8492 -2.42433,-0.8492 -1.87646,0 -4.24601,1.15052 l -0.69853,-1.73949 q 1.10944,-0.60265 2.42433,-0.94507 1.32859,-0.34242 2.65717,-0.34242 2.68457,0 3.97207,1.19162 1.30119,1.19162 1.30119,3.8214 l 0,10.24519 -1.6847,0 z m -5.13629,-1.60252 q 2.123,0 3.32831,-1.16423 1.21902,-1.16423 1.21902,-3.25983 l 0,-1.35599 -2.27367,0.0959 q -2.71196,0.0959 -3.91728,0.8492 -1.19162,0.73963 -1.19162,2.31476 0,1.23271 0.73963,1.87646 0.75332,0.64375 2.09561,0.64375 z" style="font-style:normal;font-variant:normal;font-weight:normal;font-stretch:normal;font-size:28.05100632px;font-family:&apos;Open Sans&apos;;-inkscape-font-specification:&apos;Open Sans&apos;;text-align:center;text-anchor:middle" id="path3484"/><path d="m 354.18988,789.83367 q -1.46555,0 -2.68457,-0.53418 -1.20531,-0.54787 -2.02712,-1.67101 l -0.16436,0 q 0.16436,1.31489 0.16436,2.49282 l 0,6.17725 -2.27367,0 0,-21.75049 1.84907,0 0.31502,2.05452 0.10958,0 q 0.87659,-1.23271 2.04082,-1.78059 1.16423,-0.54787 2.67087,-0.54787 2.9859,0 4.60212,2.04082 1.62992,2.04082 1.62992,5.72526 0,3.69813 -1.65731,5.75264 -1.64362,2.04083 -4.57473,2.04083 z m -0.32872,-13.6283 q -2.30106,0 -3.32832,1.2738 -1.02726,1.2738 -1.05465,4.05425 l 0,0.50678 q 0,3.16395 1.05465,4.53363 1.05465,1.35598 3.38311,1.35598 1.94494,0 3.04068,-1.57513 1.10944,-1.57513 1.10944,-4.34188 0,-2.80784 -1.10944,-4.30079 -1.09574,-1.50664 -3.09547,-1.50664 z" style="font-style:normal;font-variant:normal;font-weight:normal;font-stretch:normal;font-size:28.05100632px;font-family:&apos;Open Sans&apos;;-inkscape-font-specification:&apos;Open Sans&apos;;text-align:center;text-anchor:middle" id="path3486"/><path d="m 377.36483,782.0402 q 0,3.67073 -1.84906,5.73895 -1.84907,2.05452 -5.1089,2.05452 -2.01343,0 -3.57486,-0.94508 -1.56143,-0.94508 -2.41063,-2.71197 -0.8492,-1.76688 -0.8492,-4.13642 0,-3.67074 1.83536,-5.71156 1.83537,-2.05452 5.09521,-2.05452 3.15026,0 4.99932,2.09561 1.86276,2.09561 1.86276,5.67047 z m -11.43681,0 q 0,2.87632 1.15053,4.38297 1.15053,1.50664 3.38311,1.50664 2.23257,0 3.3831,-1.49295 1.16423,-1.50664 1.16423,-4.39666 0,-2.86263 -1.16423,-4.34188 -1.15053,-1.49295 -3.4105,-1.49295 -2.23257,0 -3.36941,1.46555 -1.13683,1.46556 -1.13683,4.36928 z" style="font-style:normal;font-variant:normal;font-weight:normal;font-stretch:normal;font-size:28.05100632px;font-family:&apos;Open Sans&apos;;-inkscape-font-specification:&apos;Open Sans&apos;;text-align:center;text-anchor:middle" id="path3488"/><path d="m 391.02052,785.46439 q 0,2.09561 -1.56144,3.23244 -1.56143,1.13684 -4.38297,1.13684 -2.98589,0 -4.6569,-0.94508 l 0,-2.10931 q 1.08205,0.54787 2.31476,0.8629 1.2464,0.31503 2.39693,0.31503 1.78058,0 2.73936,-0.56157 0.95877,-0.57527 0.95877,-1.73949 0,-0.8766 -0.76702,-1.49295 -0.75332,-0.63005 -2.9585,-1.47925 -2.09561,-0.78072 -2.9859,-1.35599 -0.87659,-0.58896 -1.31489,-1.32858 -0.4246,-0.73963 -0.4246,-1.76689 0,-1.83537 1.49295,-2.89002 1.49295,-1.06835 4.09534,-1.06835 2.42433,0 4.73908,0.98617 l -0.80811,1.84907 q -2.25997,-0.93138 -4.09534,-0.93138 -1.61622,0 -2.43802,0.50678 -0.82181,0.50678 -0.82181,1.39707 0,0.60266 0.30133,1.02726 0.31503,0.4246 0.99986,0.80811 0.68484,0.38351 2.62979,1.10944 2.67087,0.97247 3.60225,1.95863 0.94508,0.98617 0.94508,2.47912 z" style="font-style:normal;font-variant:normal;font-weight:normal;font-stretch:normal;font-size:28.05100632px;font-family:&apos;Open Sans&apos;;-inkscape-font-specification:&apos;Open Sans&apos;;text-align:center;text-anchor:middle" id="path3490"/><path d="m 396.97862,789.55973 -2.27367,0 0,-15.01167 2.27367,0 0,15.01167 z m -2.46542,-19.07962 q 0,-0.78071 0.38351,-1.13683 0.38351,-0.36981 0.95877,-0.36981 0.54787,0 0.94508,0.36981 0.3972,0.36981 0.3972,1.13683 0,0.76702 -0.3972,1.15053 -0.39721,0.36982 -0.94508,0.36982 -0.57526,0 -0.95877,-0.36982 -0.38351,-0.38351 -0.38351,-1.15053 z" style="font-style:normal;font-variant:normal;font-weight:normal;font-stretch:normal;font-size:28.05100632px;font-family:&apos;Open Sans&apos;;-inkscape-font-specification:&apos;Open Sans&apos;;text-align:center;text-anchor:middle" id="path3492"/><path d="m 406.67594,787.95721 q 0.60266,0 1.16423,-0.0822 0.56157,-0.0959 0.89029,-0.19176 l 0,1.73949 q -0.36982,0.17806 -1.09574,0.28763 -0.71224,0.12328 -1.2875,0.12328 -4.35558,0 -4.35558,-4.58843 l 0,-8.9303 -2.15039,0 0,-1.09574 2.15039,-0.94508 0.95878,-3.20504 1.31489,0 0,3.47898 4.35557,0 0,1.76688 -4.35557,0 0,8.83443 q 0,1.35598 0.64375,2.08191 0.64374,0.72593 1.76688,0.72593 z" style="font-style:normal;font-variant:normal;font-weight:normal;font-stretch:normal;font-size:28.05100632px;font-family:&apos;Open Sans&apos;;-inkscape-font-specification:&apos;Open Sans&apos;;text-align:center;text-anchor:middle" id="path3494"/><path d="m 414.0174,789.55973 -2.27366,0 0,-15.01167 2.27366,0 0,15.01167 z m -2.46542,-19.07962 q 0,-0.78071 0.38351,-1.13683 0.38351,-0.36981 0.95878,-0.36981 0.54787,0 0.94508,0.36981 0.3972,0.36981 0.3972,1.13683 0,0.76702 -0.3972,1.15053 -0.39721,0.36982 -0.94508,0.36982 -0.57527,0 -0.95878,-0.36982 -0.38351,-0.38351 -0.38351,-1.15053 z" style="font-style:normal;font-variant:normal;font-weight:normal;font-stretch:normal;font-size:28.05100632px;font-family:&apos;Open Sans&apos;;-inkscape-font-specification:&apos;Open Sans&apos;;text-align:center;text-anchor:middle" id="path3496"/><path d="m 422.1533,789.55973 -5.69786,-15.01167 2.43802,0 3.23244,8.90291 q 1.09574,3.12286 1.2875,4.05424 l 0.10957,0 q 0.15067,-0.72593 0.94508,-2.99959 0.80811,-2.28736 3.60225,-9.95756 l 2.43803,0 -5.69786,15.01167 -2.65717,0 z" style="font-style:normal;font-variant:normal;font-weight:normal;font-stretch:normal;font-size:28.05100632px;font-family:&apos;Open Sans&apos;;-inkscape-font-specification:&apos;Open Sans&apos;;text-align:center;text-anchor:middle" id="path3498"/><path d="m 439.28797,789.83367 q -3.32832,0 -5.25956,-2.02713 -1.91755,-2.02712 -1.91755,-5.62938 0,-3.62964 1.78058,-5.76634 1.79428,-2.1367 4.80757,-2.1367 2.82153,0 4.46515,1.86276 1.64361,1.84907 1.64361,4.88976 l 0,1.43816 -10.34107,0 q 0.0685,2.64348 1.32859,4.01315 1.2738,1.36968 3.57486,1.36968 2.42433,0 4.79387,-1.01356 l 0,2.02712 q -1.20531,0.52048 -2.28736,0.73963 -1.06835,0.23285 -2.58869,0.23285 z m -0.61636,-13.65569 q -1.80797,0 -2.89002,1.17792 -1.06835,1.17792 -1.2601,3.25983 l 7.84826,0 q 0,-2.15039 -0.95878,-3.28723 -0.95877,-1.15052 -2.73936,-1.15052 z" style="font-style:normal;font-variant:normal;font-weight:normal;font-stretch:normal;font-size:28.05100632px;font-family:&apos;Open Sans&apos;;-inkscape-font-specification:&apos;Open Sans&apos;;text-align:center;text-anchor:middle" id="path3500"/></g><g style="font-style:normal;font-variant:normal;font-weight:normal;font-stretch:normal;font-size:35.06375885px;line-height:125%;font-family:&apos;Open Sans&apos;;-inkscape-font-specification:&apos;Open Sans&apos;;text-align:center;letter-spacing:0px;word-spacing:0px;text-anchor:middle;fill:#000000;fill-opacity:1;stroke:none;stroke-width:1px;stroke-linecap:butt;stroke-linejoin:miter;stroke-opacity:1" id="text3402"><path d="m 509.32265,1033.8762 -13.9536,0 0,-25.0308 13.9536,0 0,2.5852 -11.04303,0 0,8.064 10.37531,0 0,2.5681 -10.37531,0 0,9.2111 11.04303,0 0,2.6024 z" style="" id="path3390"/><path d="m 521.95793,1034.2186 q -4.07479,0 -6.31764,-2.4996 -2.22573,-2.5168 -2.22573,-7.1052 0,-4.7083 2.25997,-7.2764 2.27709,-2.5682 6.47173,-2.5682 1.35256,0 2.70511,0.2911 1.35256,0.291 2.12301,0.6848 l -0.87317,2.4141 q -0.94166,-0.3767 -2.05452,-0.6164 -1.11286,-0.2568 -1.96891,-0.2568 -5.71841,0 -5.71841,7.2935 0,3.4585 1.3868,5.3075 1.40392,1.8491 4.14328,1.8491 2.34557,0 4.81099,-1.0101 l 0,2.5167 q -1.88331,0.9759 -4.74251,0.9759 z" style="" id="path3392"/><path d="m 539.7295,1014.7692 q 1.24984,0 2.24285,0.2055 l -0.39378,2.6366 q -1.16423,-0.2568 -2.05452,-0.2568 -2.27709,0 -3.90358,1.849 -1.60937,1.8491 -1.60937,4.6056 l 0,10.0671 -2.84208,0 0,-18.7646 2.34557,0 0.3253,3.4756 0.13697,0 q 1.04438,-1.832 2.51678,-2.825 1.4724,-0.993 3.23586,-0.993 z" style="" id="path3394"/><path d="m 557.02169,1033.8762 -0.56499,-2.6709 -0.13697,0 q -1.40392,1.7635 -2.80784,2.397 -1.3868,0.6163 -3.47556,0.6163 -2.79072,0 -4.38297,-1.4381 -1.57513,-1.4382 -1.57513,-4.0919 0,-5.6842 9.09124,-5.9581 l 3.1845,-0.1028 0,-1.1642 q 0,-2.2086 -0.95877,-3.253 -0.94166,-1.0615 -3.03041,-1.0615 -2.34558,0 -5.30751,1.4382 l -0.87317,-2.1744 q 1.3868,-0.7533 3.03042,-1.1813 1.66073,-0.428 3.32147,-0.428 3.35571,0 4.96508,1.4895 1.62649,1.4895 1.62649,4.7767 l 0,12.8065 -2.10588,0 z m -6.42037,-2.0031 q 2.65376,0 4.1604,-1.4553 1.52377,-1.4553 1.52377,-4.0748 l 0,-1.695 -2.84208,0.1199 q -3.38996,0.1198 -4.8966,1.0615 -1.48953,0.9245 -1.48953,2.8934 0,1.5409 0.92454,2.3456 0.94165,0.8047 2.6195,0.8047 z" style="" id="path3396"/><path d="m 577.8408,1033.8762 0,-12.1388 q 0,-2.2942 -1.04438,-3.4241 -1.04438,-1.13 -3.27011,-1.13 -2.94481,0 -4.31448,1.5922 -1.36968,1.5923 -1.36968,5.2562 l 0,9.8445 -2.84208,0 0,-18.7646 2.31133,0 0.46226,2.5682 0.13697,0 q 0.87317,-1.3868 2.4483,-2.1401 1.57513,-0.7705 3.5098,-0.7705 3.38996,0 5.10205,1.6436 1.7121,1.6265 1.7121,5.2219 l 0,12.2415 -2.84208,0 z" style="" id="path3399"/></g><path id="path3363" style="fill:none;fill-rule:evenodd;stroke:#000000;stroke-width:4;stroke-linecap:butt;stroke-linejoin:miter;stroke-opacity:1" d="m 324.95996,986.0393 206.86764,0 m -18.88229,20.7765 20.77646,-20.77654 -20.77646,-20.77645 m -169.10305,41.55299 -20.77647,-20.77654 20.77646,-20.77642"/><g style="font-style:normal;font-variant:normal;font-weight:normal;font-stretch:normal;font-size:35.06375885px;line-height:125%;font-family:&apos;Open Sans&apos;;-inkscape-font-specification:&apos;Open Sans&apos;;text-align:center;letter-spacing:0px;word-spacing:0px;text-anchor:middle;fill:#000000;fill-opacity:1;stroke:none;stroke-width:1px;stroke-linecap:butt;stroke-linejoin:miter;stroke-opacity:1" id="text3402-6"><path d="m 414.10634,979.84857 -2.7736,0 0,-17.84006 q 0,-2.22572 0.13697,-4.21176 -0.35954,0.35955 -0.80469,0.75333 -0.44515,0.39378 -4.07479,3.33859 l -1.50665,-1.95179 6.62582,-5.11918 2.39694,0 0,25.03087 z" style="" id="path3402"/><path d="m 448.86192,979.84857 0,-12.20725 q 0,-2.24285 -0.95878,-3.35572 -0.95877,-1.12998 -2.97905,-1.12998 -2.65375,0 -3.9207,1.52377 -1.26695,1.52376 -1.26695,4.69114 l 0,10.47804 -2.84208,0 0,-12.20725 q 0,-2.24285 -0.95878,-3.35572 -0.95877,-1.12998 -2.99617,-1.12998 -2.67087,0 -3.9207,1.60937 -1.23271,1.59225 -1.23271,5.23902 l 0,9.84456 -2.84209,0 0,-18.76459 2.31134,0 0.46226,2.56815 0.13697,0 q 0.80469,-1.36968 2.25997,-2.14012 1.4724,-0.77045 3.28723,-0.77045 4.40009,0 5.75264,3.1845 l 0.13697,0 q 0.83893,-1.4724 2.43118,-2.32845 1.59225,-0.85605 3.62965,-0.85605 3.1845,0 4.75963,1.64362 1.59225,1.62649 1.59225,5.22189 l 0,12.2415 -2.84208,0 z" style="" id="path3404"/></g></g></svg>